<svg data-v-fde0c5aa="" xmlns="http://www.w3.org/2000/svg" viewBox="0 0 300 300" class="iconLeftSlogan"><!----><defs data-v-fde0c5aa=""><linearGradient data-v-fde0c5aa="" gradientTransform="rotate(25)" id="229ec26c-f33e-48af-8e95-a009b5940782" x1="0%" y1="0%" x2="100%" y2="0%"><stop data-v-fde0c5aa="" offset="0%" stop-color="#49247E" stop-opacity="1"></stop><stop data-v-fde0c5aa="" offset="100%" stop-color="#AA49C7" stop-opacity="1"></stop></linearGradient></defs><rect data-v-fde0c5aa="" fill="url(#229ec26c-f33e-48af-8e95-a009b5940782)" x="0" y="0" width="300px" height="300px" class="logo-background-square"></rect><defs data-v-fde0c5aa=""><!----></defs><g data-v-fde0c5aa="" id="0812a711-3134-462f-8cd8-3d809bbb0001" fill="#ffffff" transform="matrix(3.360577138596289,0,0,3.360577138596289,117.64595286175279,122.82745087385253)"><path d="M1.90 2.86C1.90 1.39 2.91 0.67 3.85 0.57L1.62 10.43C1.78 10.54 2.04 10.61 2.37 10.61C2.88 10.61 3.43 10.37 3.57 9.72L4.45 5.57C4.86 5.66 5.25 5.81 5.67 5.81C6.40 5.81 6.78 5.10 6.44 4.66C5.87 4.94 5.31 4.76 4.63 4.69L5.42 1.02C6.13 1.34 6.90 1.72 7.46 1.72C8.47 1.72 9.14 0.87 8.83-0.39C7.22 0.32 5.88-0.28 4.33-0.28C3.00-0.28 0.45 0.21 0.45 2.51C0.45 3.18 0.87 3.81 1.60 3.81C1.78 3.81 1.97 3.77 2.18 3.67C1.99 3.44 1.90 3.09 1.90 2.86ZM11.68 8.33C11.77 8.06 11.61 7.76 11.34 7.80C11.07 8.57 9.95 9.25 9.18 9.25C8.69 9.25 8.33 8.97 8.43 8.25C8.44 8.08 8.47 7.90 8.50 7.73C10.30 4.97 11.21 2.73 11.21 1.64C11.21 0.91 10.75 0.50 10.09 0.50C8.26 0.50 7.32 3.47 6.68 8.54C6.50 10.01 7.24 10.61 8.22 10.61C9.51 10.61 11.19 9.60 11.68 8.33ZM10.19 1.43C10.35 1.43 10.43 1.50 10.43 1.74C10.43 2.21 9.91 4.20 8.68 6.48C9.16 3.53 9.73 1.43 10.19 1.43ZM14.71 3.37C12.60 3.37 11.13 6.02 11.13 8.13C11.13 9.45 11.75 10.61 13.19 10.61C15.39 10.61 16.88 7.97 16.88 5.88C16.88 4.51 16.24 3.37 14.71 3.37ZM15.02 4.44C15.60 4.44 15.83 5.01 15.83 5.77C15.83 7.24 14.94 9.39 13.83 9.39C13.34 9.39 12.92 8.92 12.92 7.69C12.92 6.31 13.75 4.44 15.02 4.44ZM21.85 4.31C21.39 6.82 20.99 8.32 20.13 9.16C19.85 8.61 19.74 7.87 19.74 7.04C19.74 6.12 19.88 5.11 20.08 4.20C20.19 3.67 19.91 3.43 19.40 3.43C18.65 3.43 17.64 4.10 17.64 4.42C17.64 4.54 17.65 4.68 17.85 4.86C17.93 4.76 18.03 4.70 18.12 4.70C18.21 4.70 18.31 4.77 18.27 4.91C18.09 5.49 17.98 6.38 17.98 7.29C17.98 8.93 18.34 10.61 19.29 10.61C20.03 10.61 20.96 9.59 21.70 7.91C21.78 9.30 22.05 10.61 22.78 10.61C24.29 10.61 26.59 7.18 26.59 3.98C26.59 2.95 26.00 2.44 25.45 2.42C24.99 2.41 24.54 2.77 24.51 3.50C25.10 3.77 25.38 4.59 25.38 5.53C25.38 6.85 24.68 8.32 23.62 9.16C23.32 8.53 23.20 7.81 23.20 7.06C23.20 6.01 23.42 4.84 23.69 3.61C23.53 3.50 23.27 3.43 23.03 3.43C22.53 3.43 21.98 3.67 21.85 4.31ZM31.68 4.72C31.68 4.09 31.36 3.37 30.09 3.37C27.78 3.37 26.57 6.29 26.57 8.11C26.57 9.83 27.64 10.61 28.95 10.61C30.31 10.61 31.93 9.77 32.90 8.36C33.05 8.11 32.91 7.81 32.55 7.88C31.95 8.68 30.66 9.39 29.65 9.39C29.01 9.39 28.49 9.11 28.35 8.36C31.05 6.86 31.68 5.91 31.68 4.72ZM30.18 4.47C30.42 4.47 30.59 4.69 30.59 5.01C30.59 5.92 29.67 6.90 28.31 7.76C28.35 6.78 28.80 4.47 30.18 4.47ZM34.97 4.20C35.08 3.67 34.80 3.43 34.30 3.43C33.71 3.43 33.21 3.72 32.73 4.10C32.45 4.33 32.55 4.76 32.73 4.87C32.86 4.76 32.94 4.70 33.01 4.70C33.14 4.70 33.19 4.83 33.15 5.05L32.00 10.43C32.17 10.54 32.41 10.61 32.66 10.61C33.17 10.61 33.70 10.37 33.84 9.73L34.01 8.88C34.72 5.64 35.38 5.01 35.84 5.01C36.13 5.01 36.27 5.17 36.27 5.36C36.27 5.53 36.22 5.71 36.12 5.80C36.25 5.84 36.40 5.85 36.53 5.85C37.25 5.85 37.65 5.17 37.65 4.54C37.65 3.96 37.30 3.43 36.62 3.43C35.98 3.43 35.38 3.82 34.82 4.96ZM39.05 10.61C41.10 10.61 41.92 9.60 41.92 8.25C41.92 6.47 39.62 6.79 39.62 5.31C39.62 4.55 40.05 4.17 40.43 4.17C40.77 4.17 41.06 4.41 41.06 4.93C41.06 5.21 40.96 5.52 40.82 5.68C41.01 5.81 41.20 5.87 41.38 5.88C41.90 5.91 42.36 5.52 42.36 4.73C42.36 3.82 41.79 3.37 40.60 3.37C38.98 3.37 38.21 4.41 38.21 5.53C38.21 7.63 40.52 7.50 40.52 8.57C40.52 9.25 39.94 9.69 39.41 9.69C38.96 9.69 38.53 9.41 38.53 8.76C38.53 8.43 38.64 8.09 38.82 7.88C38.67 7.74 38.49 7.69 38.26 7.69C37.58 7.69 37.17 8.19 37.07 8.76C36.92 9.70 37.55 10.61 39.05 10.61Z"></path></g><defs data-v-fde0c5aa=""><!----></defs><g data-v-fde0c5aa="" id="264a4543-de19-4f19-a34f-8998bda2b387" stroke="none" fill="#ffffff" transform="matrix(1.5751955389098313,0,0,1.5751955389098313,32.12402230545084,109.04481308603266)"><path d="M46 29.013c-4.958 0-9.024 3.816-9.448 8.666-.27.066-.553.126-.81.198 1.157-1.768 1.243-4.145.028-6.024l-.91-1.41-1.39.94c-2.43 1.66-3.1 5.03-1.49 7.52l.203.312c-2.44 1.17-4.095 2.574-5.183 3.82V28.682c.067-.004.133-.002.2-.009 4.36-.02 7.32-1.11 8.8-3.24 1.72-2.48.7-5.34.66-5.46l-.08-.15c-4.39-7.63-1.37-12.02-1.25-12.2l2.13-2.9-12.22 5.08-.1.05c-1.1.61-10.77 6.12-10.11 11.81.35 2.93 3.33 5.19 8.86 6.72a8.98 8.98 0 0 0 1.11.23V40.01c-1.089-1.248-2.745-2.654-5.191-3.825l.2-.312c1.621-2.49.951-5.86-1.489-7.52l-1.38-.94-.91 1.41c-1.216 1.88-1.128 4.26.033 6.03-.259-.074-.544-.133-.815-.2-.423-4.85-4.498-8.66-9.448-8.66H5v1.21c0 5.23 4.26 9.49 9.49 9.49h.75c-2.26.63-3.92 2.72-3.9 5.17l.02 2.5 2.35-.02a5.335 5.335 0 0 0 5.29-5.37l-.005-.964c4.367 2.102 5.746 4.979 6.005 5.623V49.5h2v-2.845c.262-.653 1.645-3.522 6.005-5.62l-.005.968c-.02 2.93 2.35 5.34 5.29 5.37l2.35.02.02-2.5a5.32 5.32 0 0 0-3.93-5.18h.78c5.23 0 9.49-4.25 9.49-9.49v-1.21h-1zM16.822 13.532c2.012-2.037 4.399-3.665 6.07-4.683l-8.997-6.297 1.171 3.053c.021.053 1.54 4.068 1.756 7.927zM22.135 5.55a10.644 10.644 0 0 1 2.713-2.1c-3.222-1.205-6.217-.928-6.378-.91l-.892.091v.058l4.372 3.06.185-.2zM24.869 7.792L33.1 4.37l-.754-.113c-4.508-.673-7.21.99-8.743 2.65l1.265.885z"></path></g><defs data-v-fde0c5aa=""><!----></defs><g data-v-fde0c5aa="" id="a03ca121-cbf3-404f-b5ad-b80ee4c21fcd" fill="#ffffff" transform="matrix(0.25757931385996236,0,0,0.25757931385996236,118.3674441578581,167.4270991000184)"><path d="M3.21 15.61L3.21 15.61L3.21 15.61Q3.14 15.04 3.10 14.36L3.10 14.36L3.10 14.36Q3.07 13.68 3.07 13.09L3.07 13.09L3.07 13.09Q3.07 12.15 3.13 11.29L3.13 11.29L3.13 11.29Q3.19 10.43 3.28 9.48L3.28 9.48L3.28 9.48Q3.37 8.54 3.49 7.43L3.49 7.43L3.49 7.43Q3.60 6.31 3.68 4.86L3.68 4.86L3.68 4.86Q3.86 4.86 4.21 4.96L4.21 4.96L4.21 4.96Q4.55 5.07 4.90 5.21L4.90 5.21L4.90 5.21Q5.25 5.35 5.52 5.49L5.52 5.49L5.52 5.49Q5.78 5.64 5.82 5.74L5.82 5.74L5.82 5.74Q5.59 6.29 5.40 7.18L5.40 7.18L5.40 7.18Q5.21 8.06 5.08 9.11L5.08 9.11L5.08 9.11Q4.96 10.16 4.89 11.27L4.89 11.27L4.89 11.27Q4.82 12.38 4.82 13.34L4.82 13.34L4.82 13.34Q4.82 13.79 4.83 14.22L4.83 14.22L4.83 14.22Q4.84 14.66 4.87 15.02L4.87 15.02L4.87 15.02Q5.17 14.59 5.55 13.78L5.55 13.78L5.55 13.78Q5.94 12.98 6.35 11.98L6.35 11.98L6.35 11.98Q6.76 10.99 7.17 9.91L7.17 9.91L7.17 9.91Q7.59 8.82 7.94 7.83L7.94 7.83L7.94 7.83Q8.29 6.85 8.53 6.05L8.53 6.05L8.53 6.05Q8.78 5.26 8.88 4.86L8.88 4.86L8.88 4.86Q9.06 4.86 9.42 4.96L9.42 4.96L9.42 4.96Q9.77 5.07 10.12 5.21L10.12 5.21L10.12 5.21Q10.46 5.35 10.72 5.49L10.72 5.49L10.72 5.49Q10.99 5.64 11.02 5.74L11.02 5.74L11.02 5.74Q10.78 6.29 10.59 7.18L10.59 7.18L10.59 7.18Q10.40 8.06 10.28 9.11L10.28 9.11L10.28 9.11Q10.15 10.16 10.08 11.27L10.08 11.27L10.08 11.27Q10.01 12.38 10.01 13.34L10.01 13.34L10.01 13.34Q10.01 13.75 10.02 14.15L10.02 14.15L10.02 14.15Q10.02 14.55 10.05 14.87L10.05 14.87L10.05 14.87Q10.50 13.71 10.98 12.56L10.98 12.56L10.98 12.56Q11.47 11.42 11.94 10.38L11.94 10.38L11.94 10.38Q12.42 9.34 12.87 8.43L12.87 8.43L12.87 8.43Q13.31 7.53 13.69 6.82L13.69 6.82L13.69 6.82Q14.07 6.12 14.35 5.66L14.35 5.66L14.35 5.66Q14.63 5.19 14.78 5.04L14.78 5.04L14.78 5.04Q15.11 5.08 15.45 5.27L15.45 5.27L15.45 5.27Q15.79 5.46 16.06 5.75L16.06 5.75L16.06 5.75Q15.65 6.08 15.13 6.81L15.13 6.81L15.13 6.81Q14.62 7.55 14.07 8.51L14.07 8.51L14.07 8.51Q13.52 9.48 12.97 10.57L12.97 10.57L12.97 10.57Q12.42 11.66 11.94 12.70L11.94 12.70L11.94 12.70Q11.47 13.73 11.10 14.63L11.10 14.63L11.10 14.63Q10.72 15.53 10.53 16.07L10.53 16.07L10.53 16.07Q10.16 16.24 9.81 16.24L9.81 16.24L9.81 16.24Q9.37 16.18 8.97 16.02L8.97 16.02L8.97 16.02Q8.57 15.85 8.40 15.61L8.40 15.61L8.40 15.61Q8.36 15.39 8.33 15.09L8.33 15.09L8.33 15.09Q8.30 14.78 8.29 14.49L8.29 14.49L8.29 14.49Q8.27 14.20 8.27 13.92L8.27 13.92L8.27 13.92Q8.26 13.65 8.26 13.45L8.26 13.45L8.26 13.45Q8.26 12.21 8.36 10.91L8.36 10.91L8.36 10.91Q8.46 9.62 8.60 8.13L8.60 8.13L8.60 8.13Q8.27 9.09 7.88 10.18L7.88 10.18L7.88 10.18Q7.49 11.27 7.06 12.34L7.06 12.34L7.06 12.34Q6.64 13.41 6.20 14.38L6.20 14.38L6.20 14.38Q5.75 15.36 5.33 16.07L5.33 16.07L5.33 16.07Q4.97 16.24 4.62 16.24L4.62 16.24L4.62 16.24Q4.17 16.18 3.77 16.02L3.77 16.02L3.77 16.02Q3.37 15.85 3.21 15.61ZM27.22 14.36L27.22 14.36L27.22 14.36Q27.22 13.78 27.41 12.85L27.41 12.85L27.41 12.85Q27.61 11.93 27.93 10.88L27.93 10.88L27.93 10.88Q27.01 10.95 26.07 11.06L26.07 11.06L26.07 11.06Q25.14 11.17 24.46 11.19L24.46 11.19L24.46 11.19Q23.83 12.66 23.46 13.89L23.46 13.89L23.46 13.89Q23.09 15.13 22.88 16.31L22.88 16.31L22.88 16.31Q22.34 16.18 21.99 15.87L21.99 15.87L21.99 15.87Q21.64 15.55 21.35 15.08L21.35 15.08L21.35 15.08Q21.46 14.85 21.61 14.50L21.61 14.50L21.61 14.50Q21.76 14.15 21.96 13.66L21.96 13.66L21.96 13.66Q22.16 13.16 22.42 12.50L22.42 12.50L22.42 12.50Q22.68 11.83 23.02 10.95L23.02 10.95L23.02 10.95Q22.55 10.75 22.40 10.40L22.40 10.40L22.40 10.40Q22.47 10.35 22.71 10.28L22.71 10.28L22.71 10.28Q22.96 10.22 23.32 10.15L23.32 10.15L23.51 9.70L23.51 9.70Q23.80 8.95 23.99 8.43L23.99 8.43L23.99 8.43Q24.18 7.91 24.31 7.41L24.31 7.41L24.31 7.41Q24.44 6.92 24.56 6.31L24.56 6.31L24.56 6.31Q24.68 5.71 24.85 4.79L24.85 4.79L24.85 4.79Q25.44 4.90 25.92 5.31L25.92 5.31L25.92 5.31Q26.40 5.71 26.75 6.29L26.75 6.29L26.75 6.29Q26.63 6.45 26.45 6.79L26.45 6.79L26.45 6.79Q26.26 7.13 26.05 7.59L26.05 7.59L26.05 7.59Q25.83 8.06 25.58 8.64L25.58 8.64L25.58 8.64Q25.33 9.23 25.03 9.87L25.03 9.87L25.03 9.87Q25.90 9.76 26.79 9.66L26.79 9.66L26.79 9.66Q27.68 9.56 28.36 9.52L28.36 9.52L28.36 9.52Q28.62 8.79 28.89 8.10L28.89 8.10L28.89 8.10Q29.16 7.41 29.43 6.83L29.43 6.83L29.43 6.83Q29.69 6.26 29.94 5.82L29.94 5.82L29.94 5.82Q30.18 5.39 30.38 5.18L30.38 5.18L30.38 5.18Q30.52 5.19 30.75 5.29L30.75 5.29L30.75 5.29Q30.98 5.38 31.22 5.50L31.22 5.50L31.22 5.50Q31.46 5.63 31.65 5.78L31.65 5.78L31.65 5.78Q31.85 5.92 31.92 6.05L31.92 6.05L31.92 6.05Q31.67 6.29 31.42 6.66L31.42 6.66L31.42 6.66Q31.16 7.04 30.92 7.53L30.92 7.53L30.92 7.53Q30.67 8.02 30.44 8.60L30.44 8.60L30.44 8.60Q30.20 9.17 29.99 9.79L29.99 9.79L29.99 9.79Q30.27 10.04 30.27 10.42L30.27 10.42L30.27 10.42Q30.27 10.68 30.16 10.91L30.16 10.91L30.16 10.91Q30.03 10.88 29.90 10.87L29.90 10.87L29.90 10.87Q29.78 10.86 29.64 10.85L29.64 10.85L29.64 10.85Q29.40 11.61 29.20 12.35L29.20 12.35L29.20 12.35Q29.01 13.09 28.88 13.76L28.88 13.76L28.88 13.76Q28.74 14.43 28.66 14.99L28.66 14.99L28.66 14.99Q28.59 15.55 28.59 15.93L28.59 15.93L28.59 15.93Q28.59 16.07 28.59 16.16L28.59 16.16L28.59 16.16Q28.60 16.24 28.62 16.30L28.62 16.30L28.62 16.30Q28.31 16.28 28.17 16.19L28.17 16.19L28.17 16.19Q28.03 16.10 27.96 16.00L27.96 16.00L27.96 16.00Q27.89 15.89 27.83 15.79L27.83 15.79L27.83 15.79Q27.78 15.68 27.65 15.62L27.65 15.62L27.65 15.62Q27.55 15.58 27.47 15.43L27.47 15.43L27.47 15.43Q27.38 15.27 27.33 15.08L27.33 15.08L27.33 15.08Q27.27 14.88 27.24 14.69L27.24 14.69L27.24 14.69Q27.22 14.49 27.22 14.36ZM43.99 9.21L43.99 9.21L43.99 9.21Q44.45 9.21 44.71 9.46L44.71 9.46L44.71 9.46Q44.97 9.72 44.97 10.16L44.97 10.16L44.97 10.16Q44.97 10.28 44.95 10.39L44.95 10.39L44.95 10.39Q44.93 10.51 44.90 10.60L44.90 10.60L44.90 10.60Q44.72 10.57 44.49 10.55L44.49 10.55L44.49 10.55Q44.27 10.53 43.96 10.53L43.96 10.53L43.96 10.53Q43.36 10.53 42.74 10.63L42.74 10.63L42.74 10.63Q42.13 10.74 41.57 10.81L41.57 10.81L41.57 10.81Q41.24 11.55 40.98 12.24L40.98 12.24L40.98 12.24Q40.71 12.94 40.52 13.51L40.52 13.51L40.52 13.51Q40.33 14.08 40.23 14.50L40.23 14.50L40.23 14.50Q40.12 14.92 40.11 15.13L40.11 15.13L40.11 15.13Q41.24 14.90 42.40 14.73L42.40 14.73L42.40 14.73Q43.55 14.56 44.83 14.48L44.83 14.48L44.83 14.48Q44.98 14.71 45.09 14.99L45.09 14.99L45.09 14.99Q45.19 15.27 45.19 15.60L45.19 15.60L45.19 15.60Q45.19 15.68 45.19 15.78L45.19 15.78L45.19 15.78Q45.19 15.88 45.16 15.97L45.16 15.97L45.16 15.97Q44.77 15.96 44.34 15.95L44.34 15.95L44.34 15.95Q43.90 15.95 43.20 15.95L43.20 15.95L43.20 15.95Q42.74 15.95 42.33 15.97L42.33 15.97L42.33 15.97Q41.92 15.99 41.50 16.03L41.50 16.03L41.50 16.03Q41.08 16.07 40.61 16.14L40.61 16.14L40.61 16.14Q40.14 16.21 39.55 16.31L39.55 16.31L39.55 16.31Q38.91 16.06 38.30 15.08L38.30 15.08L38.30 15.08Q38.54 14.57 38.97 13.54L38.97 13.54L38.97 13.54Q39.40 12.52 40.05 10.79L40.05 10.79L40.05 10.79Q39.42 10.60 39.23 10.09L39.23 10.09L39.23 10.09Q39.30 10.02 39.63 9.92L39.63 9.92L39.63 9.92Q39.97 9.81 40.46 9.70L40.46 9.70L40.46 9.70Q40.67 9.16 40.82 8.75L40.82 8.75L40.82 8.75Q40.96 8.34 41.08 7.99L41.08 7.99L41.08 7.99Q41.19 7.63 41.28 7.29L41.28 7.29L41.28 7.29Q41.37 6.94 41.45 6.54L41.45 6.54L41.45 6.54Q40.96 6.51 40.68 6.27L40.68 6.27L40.68 6.27Q40.40 6.02 40.40 5.63L40.40 5.63L40.40 5.63Q40.40 5.52 40.44 5.36L40.44 5.36L40.44 5.36Q40.47 5.21 40.52 5.10L40.52 5.10L40.52 5.10Q40.80 5.14 41.05 5.15L41.05 5.15L41.05 5.15Q41.31 5.17 41.73 5.17L41.73 5.17L41.73 5.17Q42.62 5.17 43.39 5.12L43.39 5.12L43.39 5.12Q44.16 5.07 44.78 5.01L44.78 5.01L44.78 5.01Q45.40 4.96 45.85 4.91L45.85 4.91L45.85 4.91Q46.30 4.86 46.54 4.86L46.54 4.86L46.54 4.86Q46.86 4.86 47.11 5.19L47.11 5.19L47.11 5.19Q47.36 5.53 47.49 6.15L47.49 6.15L47.49 6.15Q47.05 6.10 46.78 6.09L46.78 6.09L46.78 6.09Q46.51 6.08 46.30 6.08L46.30 6.08L46.30 6.08Q45.53 6.08 44.89 6.15L44.89 6.15L44.89 6.15Q44.25 6.23 43.67 6.31L43.67 6.31L43.67 6.31Q43.58 6.44 43.48 6.64L43.48 6.64L43.48 6.64Q43.37 6.83 43.20 7.18L43.20 7.18L43.20 7.18Q43.04 7.53 42.79 8.06L42.79 8.06L42.79 8.06Q42.55 8.60 42.20 9.39L42.20 9.39L42.20 9.39Q42.73 9.31 43.20 9.26L43.20 9.26L43.20 9.26Q43.67 9.21 43.99 9.21ZM54.98 16.24L54.98 16.24L54.98 16.24Q54.18 16.00 53.90 15.79L53.90 15.79L53.90 15.79Q53.62 15.57 53.62 15.19L53.62 15.19L53.62 15.19Q53.62 14.77 53.82 14.01L53.82 14.01L53.82 14.01Q54.01 13.24 54.33 12.31L54.33 12.31L54.33 12.31Q54.64 11.37 55.05 10.35L55.05 10.35L55.05 10.35Q55.45 9.32 55.87 8.39L55.87 8.39L55.87 8.39Q56.29 7.45 56.69 6.67L56.69 6.67L56.69 6.67Q57.09 5.89 57.40 5.46L57.40 5.46L57.30 4.87L57.30 4.87Q57.50 4.87 57.85 4.97L57.85 4.97L57.85 4.97Q58.20 5.07 58.55 5.21L58.55 5.21L58.55 5.21Q58.91 5.35 59.18 5.49L59.18 5.49L59.18 5.49Q59.46 5.64 59.49 5.74L59.49 5.74L59.49 5.74Q59.42 6.08 59.37 6.76L59.37 6.76L59.37 6.76Q59.33 7.43 59.33 8.20L59.33 8.20L59.33 8.20Q59.33 9.73 59.45 11.19L59.45 11.19L59.45 11.19Q59.57 12.66 60.00 14.17L60.00 14.17L60.00 14.17Q60.23 13.05 60.49 11.94L60.49 11.94L60.49 11.94Q60.75 10.82 61.03 9.81L61.03 9.81L61.03 9.81Q61.31 8.79 61.59 7.92L61.59 7.92L61.59 7.92Q61.87 7.06 62.13 6.40L62.13 6.40L62.13 6.40Q62.38 5.75 62.61 5.38L62.61 5.38L62.61 5.38Q62.83 5.01 63.01 4.98L63.01 4.98L63.01 4.98Q63.17 5.01 63.35 5.10L63.35 5.10L63.35 5.10Q63.53 5.19 63.70 5.32L63.70 5.32L63.70 5.32Q63.87 5.45 64.01 5.60L64.01 5.60L64.01 5.60Q64.15 5.75 64.23 5.91L64.23 5.91L64.23 5.91Q63.78 6.09 63.34 6.76L63.34 6.76L63.34 6.76Q62.90 7.43 62.50 8.39L62.50 8.39L62.50 8.39Q62.10 9.35 61.76 10.47L61.76 10.47L61.76 10.47Q61.42 11.59 61.16 12.68L61.16 12.68L61.16 12.68Q60.90 13.76 60.75 14.69L60.75 14.69L60.75 14.69Q60.61 15.61 60.59 16.17L60.59 16.17L60.59 16.17Q60.59 16.20 60.61 16.21L60.61 16.21L60.61 16.21Q60.56 16.23 60.52 16.23L60.52 16.23L60.52 16.23Q60.47 16.23 60.42 16.23L60.42 16.23L60.42 16.23Q59.78 16.23 59.28 16.07L59.28 16.07L59.28 16.07Q58.79 15.90 58.63 15.61L58.63 15.61L58.63 15.61Q58.34 14.43 58.14 13.34L58.14 13.34L58.14 13.34Q57.95 12.25 57.81 11.16L57.81 11.16L57.81 11.16Q57.68 10.07 57.60 8.95L57.60 8.95L57.60 8.95Q57.53 7.84 57.48 6.62L57.48 6.62L57.48 6.62Q57.22 7.04 56.92 7.72L56.92 7.72L56.92 7.72Q56.63 8.40 56.35 9.21L56.35 9.21L56.35 9.21Q56.07 10.02 55.81 10.92L55.81 10.92L55.81 10.92Q55.55 11.82 55.36 12.67L55.36 12.67L55.36 12.67Q55.16 13.52 55.05 14.29L55.05 14.29L55.05 14.29Q54.94 15.05 54.94 15.61L54.94 15.61L54.94 15.61Q54.94 15.90 54.94 16.03L54.94 16.03L54.94 16.03Q54.95 16.16 54.98 16.24ZM85.83 14.38L85.83 14.38L85.83 14.38Q86.18 14.98 86.18 15.54L86.18 15.54L86.18 15.54Q86.18 15.67 86.16 15.77L86.16 15.77L86.16 15.77Q86.14 15.88 86.11 15.99L86.11 15.99L86.11 15.99Q85.88 15.96 85.62 15.95L85.62 15.95L85.62 15.95Q85.36 15.93 85.08 15.93L85.08 15.93L85.08 15.93Q84.74 15.93 84.40 15.95L84.40 15.95L84.40 15.95Q84.06 15.97 83.64 16.02L83.64 16.02L83.64 16.02Q83.22 16.06 82.70 16.13L82.70 16.13L82.70 16.13Q82.18 16.20 81.49 16.31L81.49 16.31L81.49 16.31Q81.17 16.20 80.85 15.87L80.85 15.87L80.85 15.87Q80.53 15.54 80.25 15.08L80.25 15.08L80.25 15.08Q80.39 14.77 80.60 14.31L80.60 14.31L80.60 14.31Q80.81 13.86 81.09 13.21L81.09 13.21L81.09 13.21Q81.37 12.56 81.71 11.68L81.71 11.68L81.71 11.68Q82.05 10.81 82.45 9.66L82.45 9.66L82.45 9.66Q82.70 8.90 82.88 8.33L82.88 8.33L82.88 8.33Q83.06 7.76 83.21 7.22L83.21 7.22L83.21 7.22Q83.36 6.68 83.50 6.09L83.50 6.09L83.50 6.09Q83.64 5.50 83.80 4.73L83.80 4.73L83.80 4.73Q84.36 4.84 84.78 5.14L84.78 5.14L84.78 5.14Q85.19 5.45 85.57 6.01L85.57 6.01L85.57 6.01Q85.46 6.19 85.27 6.59L85.27 6.59L85.27 6.59Q85.09 7 84.85 7.58L84.85 7.58L84.85 7.58Q84.60 8.16 84.31 8.90L84.31 8.90L84.31 8.90Q84.01 9.63 83.69 10.47L83.69 10.47L83.69 10.47Q83.38 11.30 83.09 12.03L83.09 12.03L83.09 12.03Q82.80 12.75 82.56 13.34L82.56 13.34L82.56 13.34Q82.33 13.93 82.19 14.35L82.19 14.35L82.19 14.35Q82.05 14.77 82.05 14.98L82.05 14.98L82.05 14.98Q82.28 14.97 82.46 14.95L82.46 14.95L82.46 14.95Q82.64 14.94 82.84 14.90L82.84 14.90L82.84 14.90Q83.03 14.87 83.26 14.82L83.26 14.82L83.26 14.82Q83.50 14.77 83.82 14.69L83.82 14.69L83.82 14.69Q84.10 14.62 84.34 14.57L84.34 14.57L84.34 14.57Q84.57 14.52 84.80 14.48L84.80 14.48L84.80 14.48Q85.04 14.45 85.28 14.43L85.28 14.43L85.28 14.43Q85.53 14.41 85.83 14.38ZM94.79 14.38L94.79 14.38L94.79 14.38Q94.79 13.87 94.95 13.07L94.95 13.07L94.95 13.07Q95.12 12.26 95.38 11.33L95.38 11.33L95.38 11.33Q95.63 10.40 95.97 9.43L95.97 9.43L95.97 9.43Q96.31 8.46 96.66 7.60L96.66 7.60L96.66 7.60Q97.01 6.75 97.34 6.10L97.34 6.10L97.34 6.10Q97.68 5.46 97.94 5.18L97.94 5.18L97.94 5.18Q98.08 5.19 98.31 5.29L98.31 5.29L98.31 5.29Q98.55 5.38 98.78 5.50L98.78 5.50L98.78 5.50Q99.02 5.63 99.22 5.78L99.22 5.78L99.22 5.78Q99.41 5.92 99.47 6.05L99.47 6.05L99.47 6.05Q99.06 6.41 98.66 7.15L98.66 7.15L98.66 7.15Q98.27 7.88 97.89 8.82L97.89 8.82L97.89 8.82Q97.52 9.76 97.20 10.80L97.20 10.80L97.20 10.80Q96.88 11.84 96.64 12.82L96.64 12.82L96.64 12.82Q96.40 13.80 96.27 14.64L96.27 14.64L96.27 14.64Q96.14 15.48 96.14 16.00L96.14 16.00L96.14 16.00Q96.14 16.24 96.18 16.30L96.18 16.30L96.18 16.30Q95.87 16.28 95.73 16.19L95.73 16.19L95.73 16.19Q95.59 16.10 95.52 16.00L95.52 16.00L95.52 16.00Q95.44 15.89 95.38 15.79L95.38 15.79L95.38 15.79Q95.31 15.68 95.19 15.62L95.19 15.62L95.19 15.62Q95.09 15.58 95.02 15.43L95.02 15.43L95.02 15.43Q94.95 15.27 94.90 15.09L94.90 15.09L94.90 15.09Q94.85 14.90 94.82 14.70L94.82 14.70L94.82 14.70Q94.79 14.50 94.79 14.38ZM111.65 9.34L111.65 9.34L111.65 9.34Q112.10 9.34 112.36 9.59L112.36 9.59L112.36 9.59Q112.62 9.84 112.62 10.29L112.62 10.29L112.62 10.29Q112.62 10.40 112.60 10.52L112.60 10.52L112.60 10.52Q112.59 10.64 112.55 10.72L112.55 10.72L112.55 10.72Q112.36 10.70 112.14 10.68L112.14 10.68L112.14 10.68Q111.92 10.65 111.61 10.65L111.61 10.65L111.61 10.65Q110.98 10.65 110.35 10.77L110.35 10.77L110.35 10.77Q109.72 10.88 109.14 10.95L109.14 10.95L109.14 10.95Q108.51 12.43 108.11 13.73L108.11 13.73L108.11 13.73Q107.70 15.04 107.48 16.31L107.48 16.31L107.48 16.31Q107.00 16.20 106.64 15.90L106.64 15.90L106.64 15.90Q106.27 15.61 105.95 15.08L105.95 15.08L105.95 15.08Q106.05 14.85 106.19 14.54L106.19 14.54L106.19 14.54Q106.33 14.22 106.53 13.74L106.53 13.74L106.53 13.74Q106.72 13.26 106.99 12.56L106.99 12.56L106.99 12.56Q107.27 11.87 107.65 10.91L107.65 10.91L107.65 10.91Q107.06 10.71 106.88 10.22L106.88 10.22L106.88 10.22Q106.95 10.15 107.27 10.06L107.27 10.06L107.27 10.06Q107.59 9.97 108.05 9.86L108.05 9.86L108.05 9.86Q108.26 9.31 108.42 8.88L108.42 8.88L108.42 8.88Q108.57 8.46 108.70 8.07L108.70 8.07L108.70 8.07Q108.82 7.69 108.93 7.32L108.93 7.32L108.93 7.32Q109.03 6.94 109.12 6.52L109.12 6.52L109.05 6.52L109.05 6.52Q108.51 6.52 108.18 6.27L108.18 6.27L108.18 6.27Q107.86 6.02 107.86 5.61L107.86 5.61L107.86 5.61Q107.86 5.50 107.89 5.35L107.89 5.35L107.89 5.35Q107.93 5.19 107.98 5.08L107.98 5.08L107.98 5.08Q108.25 5.12 108.51 5.14L108.51 5.14L108.51 5.14Q108.77 5.15 109.19 5.15L109.19 5.15L109.19 5.15Q110.07 5.15 110.84 5.10L110.84 5.10L110.84 5.10Q111.61 5.05 112.23 5.00L112.23 5.00L112.23 5.00Q112.85 4.94 113.30 4.89L113.30 4.89L113.30 4.89Q113.75 4.84 113.99 4.84L113.99 4.84L113.99 4.84Q114.31 4.84 114.56 5.18L114.56 5.18L114.56 5.18Q114.81 5.52 114.95 6.13L114.95 6.13L114.95 6.13Q114.51 6.09 114.23 6.08L114.23 6.08L114.23 6.08Q113.96 6.06 113.75 6.06L113.75 6.06L113.75 6.06Q113.04 6.06 112.44 6.13L112.44 6.13L112.44 6.13Q111.85 6.19 111.31 6.27L111.31 6.27L111.31 6.27Q111.23 6.40 111.12 6.59L111.12 6.59L111.12 6.59Q111.02 6.79 110.85 7.15L110.85 7.15L110.85 7.15Q110.68 7.50 110.42 8.08L110.42 8.08L110.42 8.08Q110.17 8.65 109.77 9.53L109.77 9.53L109.77 9.53Q110.32 9.45 110.82 9.39L110.82 9.39L110.82 9.39Q111.31 9.34 111.65 9.34ZM126.28 9.21L126.28 9.21L126.28 9.21Q126.74 9.21 127.00 9.46L127.00 9.46L127.00 9.46Q127.26 9.72 127.26 10.16L127.26 10.16L127.26 10.16Q127.26 10.28 127.24 10.39L127.24 10.39L127.24 10.39Q127.22 10.51 127.19 10.60L127.19 10.60L127.19 10.60Q127.01 10.57 126.78 10.55L126.78 10.55L126.78 10.55Q126.56 10.53 126.25 10.53L126.25 10.53L126.25 10.53Q125.65 10.53 125.03 10.63L125.03 10.63L125.03 10.63Q124.42 10.74 123.86 10.81L123.86 10.81L123.86 10.81Q123.54 11.55 123.27 12.24L123.27 12.24L123.27 12.24Q123.00 12.94 122.81 13.51L122.81 13.51L122.81 13.51Q122.63 14.08 122.52 14.50L122.52 14.50L122.52 14.50Q122.42 14.92 122.40 15.13L122.40 15.13L122.40 15.13Q123.54 14.90 124.69 14.73L124.69 14.73L124.69 14.73Q125.85 14.56 127.12 14.48L127.12 14.48L127.12 14.48Q127.27 14.71 127.38 14.99L127.38 14.99L127.38 14.99Q127.48 15.27 127.48 15.60L127.48 15.60L127.48 15.60Q127.48 15.68 127.48 15.78L127.48 15.78L127.48 15.78Q127.48 15.88 127.46 15.97L127.46 15.97L127.46 15.97Q127.06 15.96 126.63 15.95L126.63 15.95L126.63 15.95Q126.20 15.95 125.50 15.95L125.50 15.95L125.50 15.95Q125.03 15.95 124.62 15.97L124.62 15.97L124.62 15.97Q124.21 15.99 123.79 16.03L123.79 16.03L123.79 16.03Q123.37 16.07 122.90 16.14L122.90 16.14L122.90 16.14Q122.43 16.21 121.84 16.31L121.84 16.31L121.84 16.31Q121.20 16.06 120.60 15.08L120.60 15.08L120.60 15.08Q120.83 14.57 121.26 13.54L121.26 13.54L121.26 13.54Q121.69 12.52 122.35 10.79L122.35 10.79L122.35 10.79Q121.72 10.60 121.52 10.09L121.52 10.09L121.52 10.09Q121.59 10.02 121.93 9.92L121.93 9.92L121.93 9.92Q122.26 9.81 122.75 9.70L122.75 9.70L122.75 9.70Q122.96 9.16 123.11 8.75L123.11 8.75L123.11 8.75Q123.26 8.34 123.37 7.99L123.37 7.99L123.37 7.99Q123.48 7.63 123.57 7.29L123.57 7.29L123.57 7.29Q123.66 6.94 123.75 6.54L123.75 6.54L123.75 6.54Q123.26 6.51 122.98 6.27L122.98 6.27L122.98 6.27Q122.70 6.02 122.70 5.63L122.70 5.63L122.70 5.63Q122.70 5.52 122.73 5.36L122.73 5.36L122.73 5.36Q122.77 5.21 122.81 5.10L122.81 5.10L122.81 5.10Q123.09 5.14 123.35 5.15L123.35 5.15L123.35 5.15Q123.61 5.17 124.03 5.17L124.03 5.17L124.03 5.17Q124.91 5.17 125.68 5.12L125.68 5.12L125.68 5.12Q126.45 5.07 127.07 5.01L127.07 5.01L127.07 5.01Q127.69 4.96 128.14 4.91L128.14 4.91L128.14 4.91Q128.59 4.86 128.83 4.86L128.83 4.86L128.83 4.86Q129.15 4.86 129.40 5.19L129.40 5.19L129.40 5.19Q129.65 5.53 129.78 6.15L129.78 6.15L129.78 6.15Q129.35 6.10 129.07 6.09L129.07 6.09L129.07 6.09Q128.80 6.08 128.59 6.08L128.59 6.08L128.59 6.08Q127.82 6.08 127.18 6.15L127.18 6.15L127.18 6.15Q126.55 6.23 125.96 6.31L125.96 6.31L125.96 6.31Q125.87 6.44 125.77 6.64L125.77 6.64L125.77 6.64Q125.66 6.83 125.50 7.18L125.50 7.18L125.50 7.18Q125.33 7.53 125.08 8.06L125.08 8.06L125.08 8.06Q124.84 8.60 124.49 9.39L124.49 9.39L124.49 9.39Q125.02 9.31 125.49 9.26L125.49 9.26L125.49 9.26Q125.96 9.21 126.28 9.21ZM154.11 10.72L154.11 10.72L154.11 10.72Q154.48 10.72 154.69 10.98L154.69 10.98L154.69 10.98Q154.90 11.23 154.90 11.68L154.90 11.68L154.90 11.68Q154.90 11.79 154.88 11.91L154.88 11.91L154.88 11.91Q154.87 12.03 154.84 12.11L154.84 12.11L154.84 12.11Q154.55 12.04 154.20 12.03L154.20 12.03L154.20 12.03Q154.11 12.64 153.75 13.32L153.75 13.32L153.75 13.32Q153.38 14 152.87 14.60L152.87 14.60L152.87 14.60Q152.35 15.19 151.73 15.64L151.73 15.64L151.73 15.64Q151.12 16.09 150.51 16.24L150.51 16.24L150.51 16.24Q148.64 16.20 147.78 15.27L147.78 15.27L147.78 15.27Q146.92 14.34 146.92 12.36L146.92 12.36L146.92 12.36Q146.92 10.92 147.45 9.57L147.45 9.57L147.45 9.57Q147.98 8.22 148.86 7.17L148.86 7.17L148.86 7.17Q149.74 6.12 150.88 5.48L150.88 5.48L150.88 5.48Q152.03 4.84 153.26 4.84L153.26 4.84L153.26 4.84Q154.22 4.84 154.76 5.25L154.76 5.25L154.76 5.25Q155.30 5.66 155.30 6.40L155.30 6.40L155.30 6.40Q155.30 6.89 155.07 7.31L155.07 7.31L155.07 7.31Q154.84 7.73 154.31 8.22L154.31 8.22L154.31 8.22Q153.99 8.12 153.75 7.88L153.75 7.88L153.75 7.88Q153.51 7.63 153.45 7.31L153.45 7.31L153.45 7.31Q153.93 6.96 154.13 6.66L154.13 6.66L154.13 6.66Q154.32 6.37 154.32 5.96L154.32 5.96L154.32 5.96Q154.32 5.32 153.55 5.32L153.55 5.32L153.55 5.32Q152.92 5.32 152.20 5.79L152.20 5.79L152.20 5.79Q151.48 6.26 150.75 7.14L150.75 7.14L150.75 7.14Q149.72 8.39 149.24 9.71L149.24 9.71L149.24 9.71Q148.76 11.03 148.76 12.68L148.76 12.68L148.76 12.68Q148.76 13.30 148.89 13.80L148.89 13.80L148.89 13.80Q149.02 14.31 149.23 14.69L149.23 14.69L149.23 14.69Q149.44 15.06 149.72 15.29L149.72 15.29L149.72 15.29Q150.01 15.51 150.35 15.54L150.35 15.54L150.35 15.54Q150.79 15.44 151.24 15.09L151.24 15.09L151.24 15.09Q151.69 14.73 152.06 14.25L152.06 14.25L152.06 14.25Q152.43 13.76 152.69 13.21L152.69 13.21L152.69 13.21Q152.95 12.66 153.01 12.15L153.01 12.15L153.01 12.15Q152.61 12.24 152.26 12.31L152.26 12.31L152.26 12.31Q151.90 12.39 151.58 12.39L151.58 12.39L151.58 12.39Q151.16 12.39 150.84 12.18L150.84 12.18L150.84 12.18Q150.53 11.97 150.42 11.61L150.42 11.61L150.42 11.61Q150.67 11.47 151.15 11.31L151.15 11.31L151.15 11.31Q151.63 11.16 152.18 11.03L152.18 11.03L152.18 11.03Q152.73 10.89 153.25 10.81L153.25 10.81L153.25 10.81Q153.78 10.72 154.11 10.72ZM168.24 9.21L168.24 9.21L168.24 9.21Q168.70 9.21 168.96 9.46L168.96 9.46L168.96 9.46Q169.22 9.72 169.22 10.16L169.22 10.16L169.22 10.16Q169.22 10.28 169.20 10.39L169.20 10.39L169.20 10.39Q169.18 10.51 169.15 10.60L169.15 10.60L169.15 10.60Q168.97 10.57 168.74 10.55L168.74 10.55L168.74 10.55Q168.52 10.53 168.21 10.53L168.21 10.53L168.21 10.53Q167.61 10.53 166.99 10.63L166.99 10.63L166.99 10.63Q166.38 10.74 165.82 10.81L165.82 10.81L165.82 10.81Q165.49 11.55 165.23 12.24L165.23 12.24L165.23 12.24Q164.96 12.94 164.77 13.51L164.77 13.51L164.77 13.51Q164.58 14.08 164.48 14.50L164.48 14.50L164.48 14.50Q164.37 14.92 164.36 15.13L164.36 15.13L164.36 15.13Q165.49 14.90 166.65 14.73L166.65 14.73L166.65 14.73Q167.80 14.56 169.08 14.48L169.08 14.48L169.08 14.48Q169.23 14.71 169.34 14.99L169.34 14.99L169.34 14.99Q169.44 15.27 169.44 15.60L169.44 15.60L169.44 15.60Q169.44 15.68 169.44 15.78L169.44 15.78L169.44 15.78Q169.44 15.88 169.41 15.97L169.41 15.97L169.41 15.97Q169.02 15.96 168.59 15.95L168.59 15.95L168.59 15.95Q168.15 15.95 167.45 15.95L167.45 15.95L167.45 15.95Q166.99 15.95 166.58 15.97L166.58 15.97L166.58 15.97Q166.17 15.99 165.75 16.03L165.75 16.03L165.75 16.03Q165.33 16.07 164.86 16.14L164.86 16.14L164.86 16.14Q164.39 16.21 163.80 16.31L163.80 16.31L163.80 16.31Q163.16 16.06 162.55 15.08L162.55 15.08L162.55 15.08Q162.79 14.57 163.22 13.54L163.22 13.54L163.22 13.54Q163.65 12.52 164.30 10.79L164.30 10.79L164.30 10.79Q163.67 10.60 163.48 10.09L163.48 10.09L163.48 10.09Q163.55 10.02 163.88 9.92L163.88 9.92L163.88 9.92Q164.22 9.81 164.71 9.70L164.71 9.70L164.71 9.70Q164.92 9.16 165.07 8.75L165.07 8.75L165.07 8.75Q165.21 8.34 165.33 7.99L165.33 7.99L165.33 7.99Q165.44 7.63 165.53 7.29L165.53 7.29L165.53 7.29Q165.62 6.94 165.70 6.54L165.70 6.54L165.70 6.54Q165.21 6.51 164.93 6.27L164.93 6.27L164.93 6.27Q164.65 6.02 164.65 5.63L164.65 5.63L164.65 5.63Q164.65 5.52 164.69 5.36L164.69 5.36L164.69 5.36Q164.72 5.21 164.77 5.10L164.77 5.10L164.77 5.10Q165.05 5.14 165.30 5.15L165.30 5.15L165.30 5.15Q165.56 5.17 165.98 5.17L165.98 5.17L165.98 5.17Q166.87 5.17 167.64 5.12L167.64 5.12L167.64 5.12Q168.41 5.07 169.03 5.01L169.03 5.01L169.03 5.01Q169.65 4.96 170.10 4.91L170.10 4.91L170.10 4.91Q170.55 4.86 170.79 4.86L170.79 4.86L170.79 4.86Q171.11 4.86 171.36 5.19L171.36 5.19L171.36 5.19Q171.61 5.53 171.74 6.15L171.74 6.15L171.74 6.15Q171.30 6.10 171.03 6.09L171.03 6.09L171.03 6.09Q170.76 6.08 170.55 6.08L170.55 6.08L170.55 6.08Q169.78 6.08 169.14 6.15L169.14 6.15L169.14 6.15Q168.50 6.23 167.92 6.31L167.92 6.31L167.92 6.31Q167.83 6.44 167.73 6.64L167.73 6.64L167.73 6.64Q167.62 6.83 167.45 7.18L167.45 7.18L167.45 7.18Q167.29 7.53 167.04 8.06L167.04 8.06L167.04 8.06Q166.80 8.60 166.45 9.39L166.45 9.39L166.45 9.39Q166.98 9.31 167.45 9.26L167.45 9.26L167.45 9.26Q167.92 9.21 168.24 9.21ZM180.75 6.69L180.75 6.69L180.75 6.69Q180.19 6.69 179.89 6.38L179.89 6.38L179.89 6.38Q179.59 6.06 179.59 5.61L179.59 5.61L179.59 5.61Q179.59 5.50 179.63 5.35L179.63 5.35L179.63 5.35Q179.66 5.19 179.72 5.08L179.72 5.08L179.72 5.08Q179.90 5.17 180.26 5.20L180.26 5.20L180.26 5.20Q180.61 5.24 181.09 5.24L181.09 5.24L181.09 5.24Q181.80 5.24 182.71 5.17L182.71 5.17L182.71 5.17Q183.61 5.11 184.44 5.04L184.44 5.04L184.44 5.04Q185.26 4.97 185.89 4.91L185.89 4.91L185.89 4.91Q186.52 4.84 186.70 4.84L186.70 4.84L186.70 4.84Q187.22 4.84 187.45 5.23L187.45 5.23L187.45 5.23Q187.68 5.61 187.80 6.26L187.80 6.26L187.80 6.26Q187.43 6.23 187.07 6.21L187.07 6.21L187.07 6.21Q186.72 6.19 186.47 6.19L186.47 6.19L186.47 6.19Q186.02 6.19 185.56 6.22L185.56 6.22L185.56 6.22Q185.11 6.24 184.65 6.30L184.65 6.30L184.65 6.30Q184.45 6.71 184.21 7.26L184.21 7.26L184.21 7.26Q183.97 7.81 183.74 8.41L183.74 8.41L183.74 8.41Q183.51 9.02 183.30 9.61L183.30 9.61L183.30 9.61Q183.09 10.21 182.94 10.68L182.94 10.68L182.94 10.68Q182.63 11.61 182.40 12.39L182.40 12.39L182.40 12.39Q182.17 13.17 181.99 13.85L181.99 13.85L181.99 13.85Q181.82 14.53 181.69 15.15L181.69 15.15L181.69 15.15Q181.57 15.76 181.47 16.35L181.47 16.35L181.47 16.35Q180.53 16.21 179.90 15.18L179.90 15.18L179.90 15.18Q180.01 14.74 180.17 14.23L180.17 14.23L180.17 14.23Q180.33 13.72 180.55 13.07L180.55 13.07L180.55 13.07Q180.77 12.42 181.06 11.59L181.06 11.59L181.06 11.59Q181.36 10.77 181.73 9.72L181.73 9.72L181.73 9.72Q181.87 9.32 182.03 8.90L182.03 8.90L182.03 8.90Q182.18 8.47 182.33 8.05L182.33 8.05L182.33 8.05Q182.48 7.63 182.59 7.24L182.59 7.24L182.59 7.24Q182.71 6.85 182.80 6.52L182.80 6.52L182.80 6.52Q182.21 6.59 181.68 6.64L181.68 6.64L181.68 6.64Q181.16 6.69 180.75 6.69ZM202.34 5.74L202.34 5.74L202.34 5.74Q202.38 5.98 202.40 6.07L202.40 6.07L202.40 6.07Q202.43 6.16 202.43 6.31L202.43 6.31L202.43 6.31Q202.43 6.78 202.22 7.18L202.22 7.18L202.22 7.18Q202.02 7.57 201.67 7.74L201.67 7.74L201.67 7.74Q201.39 7.36 200.98 7.09L200.98 7.09L200.98 7.09Q200.58 6.82 200.09 6.64L200.09 6.64L200.09 6.64Q199.61 6.47 199.09 6.38L199.09 6.38L199.09 6.38Q198.58 6.30 198.09 6.30L198.09 6.30L198.09 6.30Q197.60 6.30 197.17 6.38L197.17 6.38L197.17 6.38Q196.74 6.45 196.41 6.59L196.41 6.59L196.41 6.59Q196.08 6.72 195.89 6.92L195.89 6.92L195.89 6.92Q195.71 7.11 195.71 7.36L195.71 7.36L195.71 7.36Q195.75 7.67 196.08 7.99L196.08 7.99L196.08 7.99Q196.42 8.30 196.91 8.60L196.91 8.60L196.91 8.60Q197.40 8.90 197.99 9.20L197.99 9.20L197.99 9.20Q198.59 9.49 199.16 9.76L199.16 9.76L199.16 9.76Q199.88 10.09 200.40 10.38L200.40 10.38L200.40 10.38Q200.91 10.67 201.25 11.01L201.25 11.01L201.25 11.01Q201.59 11.35 201.75 11.79L201.75 11.79L201.75 11.79Q201.92 12.22 201.92 12.84L201.92 12.84L201.92 12.84Q201.92 13.55 201.68 14.18L201.68 14.18L201.68 14.18Q201.45 14.80 200.99 15.26L200.99 15.26L200.99 15.26Q200.54 15.72 199.89 15.98L199.89 15.98L199.89 15.98Q199.25 16.24 198.45 16.24L198.45 16.24L198.45 16.24Q197.67 16.24 196.76 16.00L196.76 16.00L196.76 16.00Q195.85 15.76 195.05 15.35L195.05 15.35L195.05 15.35Q194.26 14.94 193.74 14.40L193.74 14.40L193.74 14.40Q193.21 13.86 193.21 13.26L193.21 13.26L193.21 13.26Q193.21 12.98 193.37 12.54L193.37 12.54L193.37 12.54Q193.54 12.11 193.96 11.63L193.96 11.63L193.96 11.63Q194.00 12.05 194.41 12.63L194.41 12.63L194.41 12.63Q194.82 13.20 195.65 13.69L195.65 13.69L195.65 13.69Q196.42 14.14 197.24 14.34L197.24 14.34L197.24 14.34Q198.06 14.55 198.77 14.55L198.77 14.55L198.77 14.55Q199.56 14.55 200.05 14.35L200.05 14.35L200.05 14.35Q200.54 14.15 200.82 13.88L200.82 13.88L200.82 13.88Q201.10 13.61 201.21 13.33L201.21 13.33L201.21 13.33Q201.32 13.05 201.33 12.88L201.33 12.88L201.33 12.88Q201.32 12.60 201.07 12.34L201.07 12.34L201.07 12.34Q200.83 12.08 200.42 11.84L200.42 11.84L200.42 11.84Q200.00 11.59 199.46 11.34L199.46 11.34L199.46 11.34Q198.91 11.09 198.32 10.84L198.32 10.84L198.32 10.84Q197.44 10.44 196.80 10.10L196.80 10.10L196.80 10.10Q196.17 9.76 195.75 9.40L195.75 9.40L195.75 9.40Q195.34 9.04 195.15 8.65L195.15 8.65L195.15 8.65Q194.96 8.26 194.96 7.76L194.96 7.76L194.96 7.76Q194.96 6.97 195.44 6.27L195.44 6.27L195.44 6.27Q195.92 5.57 196.81 5.21L196.81 5.21L196.81 5.21Q197.26 5.01 197.77 4.93L197.77 4.93L197.77 4.93Q198.28 4.84 198.77 4.84L198.77 4.84L198.77 4.84Q199.70 4.84 200.58 5.10L200.58 5.10L200.58 5.10Q201.46 5.35 202.34 5.74ZM225.54 10.35L225.54 10.35L225.54 10.35Q226.59 9.20 227.42 7.91L227.42 7.91L227.42 7.91Q228.26 6.62 228.97 5.01L228.97 5.01L228.97 5.01Q229.33 5.05 229.67 5.21L229.67 5.21L229.67 5.21Q230.01 5.36 230.20 5.56L230.20 5.56L230.20 5.56Q229.43 6.48 228.81 7.24L228.81 7.24L228.81 7.24Q228.19 7.99 227.67 8.66L227.67 8.66L227.67 8.66Q227.15 9.32 226.71 9.93L226.71 9.93L226.71 9.93Q226.27 10.54 225.85 11.16L225.85 11.16L225.85 11.16Q225.64 11.87 225.46 12.60L225.46 12.60L225.46 12.60Q225.27 13.33 225.13 13.99L225.13 13.99L225.13 13.99Q224.99 14.66 224.92 15.22L224.92 15.22L224.92 15.22Q224.84 15.79 224.84 16.20L224.84 16.20L224.84 16.20Q224.69 16.20 224.35 16.14L224.35 16.14L224.35 16.14Q224.01 16.07 223.66 15.99L223.66 15.99L223.66 15.99Q223.31 15.90 223.03 15.82L223.03 15.82L223.03 15.82Q222.74 15.74 222.68 15.68L222.68 15.68L222.68 15.68Q222.91 15.30 223.12 14.75L223.12 14.75L223.12 14.75Q223.34 14.20 223.55 13.59L223.55 13.59L223.55 13.59Q223.76 12.98 223.96 12.36L223.96 12.36L223.96 12.36Q224.15 11.73 224.32 11.20L224.32 11.20L224.32 11.20Q223.97 10.11 223.64 9.15L223.64 9.15L223.64 9.15Q223.31 8.19 223.01 7.41L223.01 7.41L223.01 7.41Q222.70 6.64 222.42 6.08L222.42 6.08L222.42 6.08Q222.14 5.52 221.89 5.22L221.89 5.22L221.89 5.22Q222.03 5.17 222.31 5.11L222.31 5.11L222.31 5.11Q222.60 5.05 222.94 5.00L222.94 5.00L222.94 5.00Q223.29 4.94 223.64 4.91L223.64 4.91L223.64 4.91Q224.00 4.87 224.28 4.86L224.28 4.86L224.28 4.86Q224.28 5.21 224.34 5.71L224.34 5.71L224.34 5.71Q224.41 6.22 224.51 6.79L224.51 6.79L224.51 6.79Q224.62 7.36 224.76 7.95L224.76 7.95L224.76 7.95Q224.90 8.54 225.04 9.03L225.04 9.03L225.04 9.03Q225.18 9.52 225.31 9.88L225.31 9.88L225.31 9.88Q225.44 10.23 225.54 10.35ZM242.19 4.98L242.19 4.98L242.19 4.98Q242.45 5.10 242.73 5.27L242.73 5.27L242.73 5.27Q243.01 5.45 243.25 5.63L243.25 5.63L243.25 5.63Q243.49 5.81 243.65 5.98L243.65 5.98L243.65 5.98Q243.81 6.16 243.82 6.27L243.82 6.27L243.82 6.27Q243.59 6.22 243.35 6.20L243.35 6.20L243.35 6.20Q243.11 6.17 242.91 6.17L242.91 6.17L242.91 6.17Q242.28 6.17 241.66 6.48L241.66 6.48L241.66 6.48Q241.04 6.79 240.48 7.32L240.48 7.32L240.48 7.32Q239.92 7.85 239.44 8.57L239.44 8.57L239.44 8.57Q238.97 9.28 238.62 10.09L238.62 10.09L238.62 10.09Q238.28 10.91 238.08 11.77L238.08 11.77L238.08 11.77Q237.89 12.64 237.89 13.48L237.89 13.48L237.89 13.48Q237.89 14.57 238.25 15.11L238.25 15.11L238.25 15.11Q238.62 15.64 239.32 15.64L239.32 15.64L239.32 15.64Q239.65 15.64 240.04 15.51L240.04 15.51L240.04 15.51Q240.44 15.37 240.84 15.13L240.84 15.13L240.84 15.13Q241.25 14.90 241.64 14.56L241.64 14.56L241.64 14.56Q242.03 14.22 242.37 13.82L242.37 13.82L242.37 13.82Q242.86 13.23 243.25 12.48L243.25 12.48L243.25 12.48Q243.64 11.73 243.91 10.89L243.91 10.89L243.91 10.89Q244.19 10.05 244.33 9.16L244.33 9.16L244.33 9.16Q244.48 8.27 244.48 7.42L244.48 7.42L244.48 7.42Q244.48 7.08 244.47 6.85L244.47 6.85L244.47 6.85Q244.45 6.62 244.43 6.46L244.43 6.46L244.43 6.46Q244.41 6.30 244.40 6.20L244.40 6.20L244.40 6.20Q244.38 6.10 244.37 6.03L244.37 6.03L244.37 6.03Q244.54 6.12 244.74 6.24L244.74 6.24L244.74 6.24Q244.94 6.36 245.12 6.59L245.12 6.59L245.12 6.59Q245.29 6.82 245.41 7.20L245.41 7.20L245.41 7.20Q245.53 7.57 245.53 8.18L245.53 8.18L245.53 8.18Q245.53 9.16 245.30 10.10L245.30 10.10L245.30 10.10Q245.07 11.05 244.66 11.90L244.66 11.90L244.66 11.90Q244.24 12.75 243.68 13.50L243.68 13.50L243.68 13.50Q243.12 14.24 242.48 14.80L242.48 14.80L242.48 14.80Q241.64 15.54 240.69 15.95L240.69 15.95L240.69 15.95Q239.74 16.35 238.85 16.35L238.85 16.35L238.85 16.35Q237.57 16.35 236.89 15.53L236.89 15.53L236.89 15.53Q236.21 14.71 236.21 13.12L236.21 13.12L236.21 13.12Q236.21 12.26 236.40 11.31L236.40 11.31L236.40 11.31Q236.59 10.36 236.93 9.44L236.93 9.44L236.93 9.44Q237.27 8.51 237.75 7.68L237.75 7.68L237.75 7.68Q238.22 6.85 238.79 6.21L238.79 6.21L238.79 6.21Q239.36 5.57 240.01 5.19L240.01 5.19L240.01 5.19Q240.66 4.82 241.35 4.82L241.35 4.82L241.35 4.82Q241.57 4.82 241.77 4.85L241.77 4.85L241.77 4.85Q241.96 4.89 242.19 4.98ZM258.23 5.75L258.23 5.75L258.23 5.75Q257.61 6.58 257.11 7.57L257.11 7.57L257.11 7.57Q256.61 8.57 256.25 9.61L256.25 9.61L256.25 9.61Q255.89 10.65 255.70 11.67L255.70 11.67L255.70 11.67Q255.51 12.68 255.51 13.57L255.51 13.57L255.51 13.57Q255.51 14.66 255.84 15.15L255.84 15.15L255.84 15.15Q256.16 15.64 256.94 15.64L256.94 15.64L256.94 15.64Q257.85 15.64 258.54 15.00L258.54 15.00L258.54 15.00Q259.22 14.36 259.83 13.24L259.83 13.24L259.83 13.24Q260.22 12.52 260.50 11.65L260.50 11.65L260.50 11.65Q260.78 10.78 260.95 9.86L260.95 9.86L260.95 9.86Q261.13 8.95 261.21 8.02L261.21 8.02L261.21 8.02Q261.30 7.08 261.30 6.23L261.30 6.23L261.30 6.23Q261.30 5.68 261.28 5.43L261.28 5.43L261.28 5.43Q261.27 5.18 261.24 5.03L261.24 5.03L261.24 5.03Q261.28 5.03 261.45 5.05L261.45 5.05L261.45 5.05Q261.62 5.08 261.83 5.12L261.83 5.12L261.83 5.12Q262.05 5.17 262.27 5.24L262.27 5.24L262.27 5.24Q262.49 5.31 262.64 5.39L262.64 5.39L262.64 5.39Q262.57 6.45 262.38 7.59L262.38 7.59L262.38 7.59Q262.19 8.72 261.88 9.83L261.88 9.83L261.88 9.83Q261.58 10.93 261.17 11.96L261.17 11.96L261.17 11.96Q260.76 12.98 260.26 13.79L260.26 13.79L260.26 13.79Q259.52 14.99 258.59 15.67L258.59 15.67L258.59 15.67Q257.67 16.35 256.41 16.35L256.41 16.35L256.41 16.35Q255.12 16.35 254.41 15.60L254.41 15.60L254.41 15.60Q253.69 14.85 253.69 13.33L253.69 13.33L253.69 13.33Q253.69 12.45 253.89 11.33L253.89 11.33L253.89 11.33Q254.09 10.22 254.41 9.07L254.41 9.07L254.41 9.07Q254.74 7.91 255.18 6.81L255.18 6.81L255.18 6.81Q255.61 5.71 256.09 4.84L256.09 4.84L256.09 4.84Q256.33 4.86 256.65 4.94L256.65 4.94L256.65 4.94Q256.97 5.03 257.28 5.16L257.28 5.16L257.28 5.16Q257.59 5.29 257.84 5.45L257.84 5.45L257.84 5.45Q258.10 5.61 258.23 5.75ZM280.88 14.45L280.88 14.45L280.88 14.45Q281.09 13.99 281.39 13.26L281.39 13.26L281.39 13.26Q281.68 12.53 282.00 11.68L282.00 11.68L282.00 11.68Q282.32 10.84 282.66 9.95L282.66 9.95L282.66 9.95Q283.00 9.06 283.29 8.26L283.29 8.26L283.29 8.26Q283.58 7.46 283.80 6.83L283.80 6.83L283.80 6.83Q284.02 6.20 284.12 5.87L284.12 5.87L284.12 5.87Q283.23 6.23 282.60 6.97L282.60 6.97L282.60 6.97Q281.97 7.71 281.65 8.83L281.65 8.83L281.65 8.83Q281.33 8.72 281.06 8.43L281.06 8.43L281.06 8.43Q280.80 8.15 280.71 7.71L280.71 7.71L280.71 7.71Q280.85 7.07 281.24 6.54L281.24 6.54L281.24 6.54Q281.62 6.01 282.21 5.63L282.21 5.63L282.21 5.63Q282.80 5.25 283.57 5.05L283.57 5.05L283.57 5.05Q284.34 4.84 285.22 4.84L285.22 4.84L285.22 4.84Q286.34 4.84 287.28 5.17L287.28 5.17L287.28 5.17Q288.22 5.50 288.89 6.09L288.89 6.09L288.89 6.09Q289.56 6.68 289.94 7.50L289.94 7.50L289.94 7.50Q290.32 8.33 290.32 9.34L290.32 9.34L290.32 9.34Q290.32 10.71 289.81 11.96L289.81 11.96L289.81 11.96Q289.31 13.20 288.45 14.15L288.45 14.15L288.45 14.15Q287.59 15.11 286.45 15.67L286.45 15.67L286.45 15.67Q285.32 16.24 284.07 16.24L284.07 16.24L284.07 16.24Q282.93 16.24 282.11 15.79L282.11 15.79L282.11 15.79Q281.29 15.33 280.88 14.45ZM285.82 5.54L285.82 5.54L285.82 5.54Q285.12 5.54 284.49 5.74L284.49 5.74L284.49 5.74Q285.11 5.96 285.52 6.21L285.52 6.21L285.52 6.21Q285.92 6.45 286.08 6.59L286.08 6.59L286.08 6.59Q285.96 6.75 285.75 7.14L285.75 7.14L285.75 7.14Q285.53 7.53 285.24 8.09L285.24 8.09L285.24 8.09Q284.96 8.65 284.63 9.32L284.63 9.32L284.63 9.32Q284.31 9.98 284.00 10.68L284.00 10.68L284.00 10.68Q283.21 12.46 282.85 13.48L282.85 13.48L282.85 13.48Q282.49 14.50 282.49 14.90L282.49 14.90L282.49 14.90Q282.69 14.97 282.97 14.99L282.97 14.99L282.97 14.99Q283.25 15.02 283.57 15.02L283.57 15.02L283.57 15.02Q284.70 15.02 285.72 14.50L285.72 14.50L285.72 14.50Q286.73 13.97 287.50 13.09L287.50 13.09L287.50 13.09Q288.26 12.21 288.70 11.04L288.70 11.04L288.70 11.04Q289.14 9.87 289.14 8.58L289.14 8.58L289.14 8.58Q289.14 7.14 288.25 6.34L288.25 6.34L288.25 6.34Q287.35 5.54 285.82 5.54ZM304.29 4.98L304.29 4.98L304.29 4.98Q304.56 5.10 304.84 5.27L304.84 5.27L304.84 5.27Q305.12 5.45 305.35 5.63L305.35 5.63L305.35 5.63Q305.59 5.81 305.75 5.98L305.75 5.98L305.75 5.98Q305.91 6.16 305.93 6.27L305.93 6.27L305.93 6.27Q305.69 6.22 305.45 6.20L305.45 6.20L305.45 6.20Q305.21 6.17 305.02 6.17L305.02 6.17L305.02 6.17Q304.39 6.17 303.76 6.48L303.76 6.48L303.76 6.48Q303.14 6.79 302.58 7.32L302.58 7.32L302.58 7.32Q302.02 7.85 301.55 8.57L301.55 8.57L301.55 8.57Q301.07 9.28 300.73 10.09L300.73 10.09L300.73 10.09Q300.38 10.91 300.19 11.77L300.19 11.77L300.19 11.77Q299.99 12.64 299.99 13.48L299.99 13.48L299.99 13.48Q299.99 14.57 300.36 15.11L300.36 15.11L300.36 15.11Q300.72 15.64 301.42 15.64L301.42 15.64L301.42 15.64Q301.76 15.64 302.15 15.51L302.15 15.51L302.15 15.51Q302.54 15.37 302.95 15.13L302.95 15.13L302.95 15.13Q303.35 14.90 303.74 14.56L303.74 14.56L303.74 14.56Q304.14 14.22 304.47 13.82L304.47 13.82L304.47 13.82Q304.96 13.23 305.35 12.48L305.35 12.48L305.35 12.48Q305.75 11.73 306.02 10.89L306.02 10.89L306.02 10.89Q306.29 10.05 306.44 9.16L306.44 9.16L306.44 9.16Q306.59 8.27 306.59 7.42L306.59 7.42L306.59 7.42Q306.59 7.08 306.57 6.85L306.57 6.85L306.57 6.85Q306.56 6.62 306.54 6.46L306.54 6.46L306.54 6.46Q306.52 6.30 306.50 6.20L306.50 6.20L306.50 6.20Q306.49 6.10 306.47 6.03L306.47 6.03L306.47 6.03Q306.64 6.12 306.84 6.24L306.84 6.24L306.84 6.24Q307.05 6.36 307.22 6.59L307.22 6.59L307.22 6.59Q307.40 6.82 307.52 7.20L307.52 7.20L307.52 7.20Q307.64 7.57 307.64 8.18L307.64 8.18L307.64 8.18Q307.64 9.16 307.40 10.10L307.40 10.10L307.40 10.10Q307.17 11.05 306.76 11.90L306.76 11.90L306.76 11.90Q306.35 12.75 305.79 13.50L305.79 13.50L305.79 13.50Q305.23 14.24 304.58 14.80L304.58 14.80L304.58 14.80Q303.74 15.54 302.79 15.95L302.79 15.95L302.79 15.95Q301.84 16.35 300.96 16.35L300.96 16.35L300.96 16.35Q299.67 16.35 298.99 15.53L298.99 15.53L298.99 15.53Q298.31 14.71 298.31 13.12L298.31 13.12L298.31 13.12Q298.31 12.26 298.50 11.31L298.50 11.31L298.50 11.31Q298.69 10.36 299.03 9.44L299.03 9.44L299.03 9.44Q299.38 8.51 299.85 7.68L299.85 7.68L299.85 7.68Q300.33 6.85 300.89 6.21L300.89 6.21L300.89 6.21Q301.46 5.57 302.11 5.19L302.11 5.19L302.11 5.19Q302.76 4.82 303.45 4.82L303.45 4.82L303.45 4.82Q303.67 4.82 303.87 4.85L303.87 4.85L303.87 4.85Q304.07 4.89 304.29 4.98ZM316.57 15.61L316.57 15.61L316.57 15.61Q316.50 15.04 316.46 14.36L316.46 14.36L316.46 14.36Q316.43 13.68 316.43 13.09L316.43 13.09L316.43 13.09Q316.43 12.15 316.49 11.29L316.49 11.29L316.49 11.29Q316.55 10.43 316.64 9.48L316.64 9.48L316.64 9.48Q316.74 8.54 316.85 7.43L316.85 7.43L316.85 7.43Q316.96 6.31 317.04 4.86L317.04 4.86L317.04 4.86Q317.23 4.86 317.57 4.96L317.57 4.96L317.57 4.96Q317.91 5.07 318.26 5.21L318.26 5.21L318.26 5.21Q318.61 5.35 318.88 5.49L318.88 5.49L318.88 5.49Q319.14 5.64 319.19 5.74L319.19 5.74L319.19 5.74Q318.95 6.29 318.76 7.18L318.76 7.18L318.76 7.18Q318.57 8.06 318.44 9.11L318.44 9.11L318.44 9.11Q318.32 10.16 318.25 11.27L318.25 11.27L318.25 11.27Q318.18 12.38 318.18 13.34L318.18 13.34L318.18 13.34Q318.18 13.79 318.19 14.22L318.19 14.22L318.19 14.22Q318.21 14.66 318.23 15.02L318.23 15.02L318.23 15.02Q318.53 14.59 318.91 13.78L318.91 13.78L318.91 13.78Q319.30 12.98 319.71 11.98L319.71 11.98L319.71 11.98Q320.12 10.99 320.54 9.91L320.54 9.91L320.54 9.91Q320.95 8.82 321.30 7.83L321.30 7.83L321.30 7.83Q321.65 6.85 321.89 6.05L321.89 6.05L321.89 6.05Q322.14 5.26 322.24 4.86L322.24 4.86L322.24 4.86Q322.42 4.86 322.78 4.96L322.78 4.96L322.78 4.96Q323.13 5.07 323.48 5.21L323.48 5.21L323.48 5.21Q323.82 5.35 324.09 5.49L324.09 5.49L324.09 5.49Q324.35 5.64 324.38 5.74L324.38 5.74L324.38 5.74Q324.14 6.29 323.95 7.18L323.95 7.18L323.95 7.18Q323.76 8.06 323.64 9.11L323.64 9.11L323.64 9.11Q323.51 10.16 323.44 11.27L323.44 11.27L323.44 11.27Q323.37 12.38 323.37 13.34L323.37 13.34L323.37 13.34Q323.37 13.75 323.38 14.15L323.38 14.15L323.38 14.15Q323.39 14.55 323.41 14.87L323.41 14.87L323.41 14.87Q323.86 13.71 324.34 12.56L324.34 12.56L324.34 12.56Q324.83 11.42 325.30 10.38L325.30 10.38L325.30 10.38Q325.78 9.34 326.23 8.43L326.23 8.43L326.23 8.43Q326.68 7.53 327.05 6.82L327.05 6.82L327.05 6.82Q327.43 6.12 327.71 5.66L327.71 5.66L327.71 5.66Q327.99 5.19 328.15 5.04L328.15 5.04L328.15 5.04Q328.47 5.08 328.81 5.27L328.81 5.27L328.81 5.27Q329.15 5.46 329.42 5.75L329.42 5.75L329.42 5.75Q329.01 6.08 328.50 6.81L328.50 6.81L328.50 6.81Q327.98 7.55 327.43 8.51L327.43 8.51L327.43 8.51Q326.89 9.48 326.33 10.57L326.33 10.57L326.33 10.57Q325.78 11.66 325.30 12.70L325.30 12.70L325.30 12.70Q324.83 13.73 324.46 14.63L324.46 14.63L324.46 14.63Q324.09 15.53 323.89 16.07L323.89 16.07L323.89 16.07Q323.53 16.24 323.18 16.24L323.18 16.24L323.18 16.24Q322.73 16.18 322.33 16.02L322.33 16.02L322.33 16.02Q321.93 15.85 321.76 15.61L321.76 15.61L321.76 15.61Q321.72 15.39 321.69 15.09L321.69 15.09L321.69 15.09Q321.66 14.78 321.65 14.49L321.65 14.49L321.65 14.49Q321.64 14.20 321.63 13.92L321.63 13.92L321.63 13.92Q321.62 13.65 321.62 13.45L321.62 13.45L321.62 13.45Q321.62 12.21 321.72 10.91L321.72 10.91L321.72 10.91Q321.82 9.62 321.96 8.13L321.96 8.13L321.96 8.13Q321.64 9.09 321.24 10.18L321.24 10.18L321.24 10.18Q320.85 11.27 320.42 12.34L320.42 12.34L320.42 12.34Q320.00 13.41 319.56 14.38L319.56 14.38L319.56 14.38Q319.12 15.36 318.70 16.07L318.70 16.07L318.70 16.07Q318.33 16.24 317.98 16.24L317.98 16.24L317.98 16.24Q317.53 16.18 317.13 16.02L317.13 16.02L317.13 16.02Q316.74 15.85 316.57 15.61ZM336.36 16.24L336.36 16.24L336.36 16.24Q335.57 16.00 335.29 15.79L335.29 15.79L335.29 15.79Q335.01 15.57 335.01 15.19L335.01 15.19L335.01 15.19Q335.01 14.77 335.20 14.01L335.20 14.01L335.20 14.01Q335.40 13.24 335.71 12.31L335.71 12.31L335.71 12.31Q336.03 11.37 336.43 10.35L336.43 10.35L336.43 10.35Q336.84 9.32 337.26 8.39L337.26 8.39L337.26 8.39Q337.68 7.45 338.08 6.67L338.08 6.67L338.08 6.67Q338.48 5.89 338.79 5.46L338.79 5.46L338.69 4.87L338.69 4.87Q338.88 4.87 339.23 4.97L339.23 4.97L339.23 4.97Q339.58 5.07 339.94 5.21L339.94 5.21L339.94 5.21Q340.30 5.35 340.57 5.49L340.57 5.49L340.57 5.49Q340.84 5.64 340.87 5.74L340.87 5.74L340.87 5.74Q340.80 6.08 340.76 6.76L340.76 6.76L340.76 6.76Q340.72 7.43 340.72 8.20L340.72 8.20L340.72 8.20Q340.72 9.73 340.84 11.19L340.84 11.19L340.84 11.19Q340.96 12.66 341.39 14.17L341.39 14.17L341.39 14.17Q341.61 13.05 341.87 11.94L341.87 11.94L341.87 11.94Q342.13 10.82 342.41 9.81L342.41 9.81L342.41 9.81Q342.69 8.79 342.97 7.92L342.97 7.92L342.97 7.92Q343.25 7.06 343.51 6.40L343.51 6.40L343.51 6.40Q343.77 5.75 343.99 5.38L343.99 5.38L343.99 5.38Q344.22 5.01 344.40 4.98L344.40 4.98L344.40 4.98Q344.55 5.01 344.74 5.10L344.74 5.10L344.74 5.10Q344.92 5.19 345.09 5.32L345.09 5.32L345.09 5.32Q345.25 5.45 345.39 5.60L345.39 5.60L345.39 5.60Q345.53 5.75 345.62 5.91L345.62 5.91L345.62 5.91Q345.17 6.09 344.73 6.76L344.73 6.76L344.73 6.76Q344.29 7.43 343.89 8.39L343.89 8.39L343.89 8.39Q343.49 9.35 343.15 10.47L343.15 10.47L343.15 10.47Q342.80 11.59 342.54 12.68L342.54 12.68L342.54 12.68Q342.29 13.76 342.14 14.69L342.14 14.69L342.14 14.69Q341.99 15.61 341.98 16.17L341.98 16.17L341.98 16.17Q341.98 16.20 341.99 16.21L341.99 16.21L341.99 16.21Q341.95 16.23 341.90 16.23L341.90 16.23L341.90 16.23Q341.85 16.23 341.81 16.23L341.81 16.23L341.81 16.23Q341.17 16.23 340.67 16.07L340.67 16.07L340.67 16.07Q340.17 15.90 340.02 15.61L340.02 15.61L340.02 15.61Q339.72 14.43 339.53 13.34L339.53 13.34L339.53 13.34Q339.33 12.25 339.20 11.16L339.20 11.16L339.20 11.16Q339.07 10.07 338.99 8.95L338.99 8.95L338.99 8.95Q338.91 7.84 338.87 6.62L338.87 6.62L338.87 6.62Q338.60 7.04 338.31 7.72L338.31 7.72L338.31 7.72Q338.02 8.40 337.74 9.21L337.74 9.21L337.74 9.21Q337.46 10.02 337.20 10.92L337.20 10.92L337.20 10.92Q336.94 11.82 336.74 12.67L336.74 12.67L336.74 12.67Q336.55 13.52 336.43 14.29L336.43 14.29L336.43 14.29Q336.32 15.05 336.32 15.61L336.32 15.61L336.32 15.61Q336.32 15.90 336.33 16.03L336.33 16.03L336.33 16.03Q336.34 16.16 336.36 16.24ZM350.50 17.54L350.50 17.54L350.50 17.54Q350.42 17.47 350.35 17.31L350.35 17.31L350.35 17.31Q350.28 17.15 350.28 17.01L350.28 17.01L350.28 17.01Q350.98 16.41 351.28 15.86L351.28 15.86L351.28 15.86Q351.58 15.32 351.58 14.67L351.58 14.67L351.58 14.67Q351.58 14.25 351.55 13.95L351.55 13.95L351.55 13.95Q351.51 13.65 351.41 13.26L351.41 13.26L351.41 13.26Q351.76 13.29 352.11 13.38L352.11 13.38L352.11 13.38Q352.45 13.47 352.72 13.60L352.72 13.60L352.72 13.60Q353.00 13.73 353.18 13.91L353.18 13.91L353.18 13.91Q353.36 14.08 353.40 14.25L353.40 14.25L353.40 14.25Q352.74 16.58 350.50 17.54ZM380.13 10.72L380.13 10.72L380.13 10.72Q380.49 10.72 380.70 10.98L380.70 10.98L380.70 10.98Q380.91 11.23 380.91 11.68L380.91 11.68L380.91 11.68Q380.91 11.79 380.90 11.91L380.90 11.91L380.90 11.91Q380.88 12.03 380.86 12.11L380.86 12.11L380.86 12.11Q380.56 12.04 380.21 12.03L380.21 12.03L380.21 12.03Q380.13 12.64 379.76 13.32L379.76 13.32L379.76 13.32Q379.40 14 378.88 14.60L378.88 14.60L378.88 14.60Q378.36 15.19 377.75 15.64L377.75 15.64L377.75 15.64Q377.13 16.09 376.53 16.24L376.53 16.24L376.53 16.24Q374.65 16.20 373.79 15.27L373.79 15.27L373.79 15.27Q372.93 14.34 372.93 12.36L372.93 12.36L372.93 12.36Q372.93 10.92 373.46 9.57L373.46 9.57L373.46 9.57Q374.00 8.22 374.88 7.17L374.88 7.17L374.88 7.17Q375.76 6.12 376.90 5.48L376.90 5.48L376.90 5.48Q378.04 4.84 379.27 4.84L379.27 4.84L379.27 4.84Q380.24 4.84 380.78 5.25L380.78 5.25L380.78 5.25Q381.32 5.66 381.32 6.40L381.32 6.40L381.32 6.40Q381.32 6.89 381.09 7.31L381.09 7.31L381.09 7.31Q380.86 7.73 380.32 8.22L380.32 8.22L380.32 8.22Q380.00 8.12 379.76 7.88L379.76 7.88L379.76 7.88Q379.53 7.63 379.47 7.31L379.47 7.31L379.47 7.31Q379.95 6.96 380.14 6.66L380.14 6.66L380.14 6.66Q380.34 6.37 380.34 5.96L380.34 5.96L380.34 5.96Q380.34 5.32 379.57 5.32L379.57 5.32L379.57 5.32Q378.94 5.32 378.22 5.79L378.22 5.79L378.22 5.79Q377.50 6.26 376.77 7.14L376.77 7.14L376.77 7.14Q375.73 8.39 375.26 9.71L375.26 9.71L375.26 9.71Q374.78 11.03 374.78 12.68L374.78 12.68L374.78 12.68Q374.78 13.30 374.91 13.80L374.91 13.80L374.91 13.80Q375.03 14.31 375.24 14.69L375.24 14.69L375.24 14.69Q375.45 15.06 375.74 15.29L375.74 15.29L375.74 15.29Q376.03 15.51 376.36 15.54L376.36 15.54L376.36 15.54Q376.81 15.44 377.26 15.09L377.26 15.09L377.26 15.09Q377.71 14.73 378.08 14.25L378.08 14.25L378.08 14.25Q378.45 13.76 378.71 13.21L378.71 13.21L378.71 13.21Q378.97 12.66 379.02 12.15L379.02 12.15L379.02 12.15Q378.63 12.24 378.27 12.31L378.27 12.31L378.27 12.31Q377.92 12.39 377.59 12.39L377.59 12.39L377.59 12.39Q377.17 12.39 376.86 12.18L376.86 12.18L376.86 12.18Q376.54 11.97 376.43 11.61L376.43 11.61L376.43 11.61Q376.68 11.47 377.17 11.31L377.17 11.31L377.17 11.31Q377.65 11.16 378.20 11.03L378.20 11.03L378.20 11.03Q378.74 10.89 379.27 10.81L379.27 10.81L379.27 10.81Q379.79 10.72 380.13 10.72ZM394.25 9.21L394.25 9.21L394.25 9.21Q394.72 9.21 394.97 9.46L394.97 9.46L394.97 9.46Q395.23 9.72 395.23 10.16L395.23 10.16L395.23 10.16Q395.23 10.28 395.21 10.39L395.21 10.39L395.21 10.39Q395.19 10.51 395.16 10.60L395.16 10.60L395.16 10.60Q394.98 10.57 394.76 10.55L394.76 10.55L394.76 10.55Q394.53 10.53 394.23 10.53L394.23 10.53L394.23 10.53Q393.62 10.53 393.01 10.63L393.01 10.63L393.01 10.63Q392.39 10.74 391.83 10.81L391.83 10.81L391.83 10.81Q391.51 11.55 391.24 12.24L391.24 12.24L391.24 12.24Q390.98 12.94 390.79 13.51L390.79 13.51L390.79 13.51Q390.60 14.08 390.50 14.50L390.50 14.50L390.50 14.50Q390.39 14.92 390.38 15.13L390.38 15.13L390.38 15.13Q391.51 14.90 392.67 14.73L392.67 14.73L392.67 14.73Q393.82 14.56 395.09 14.48L395.09 14.48L395.09 14.48Q395.25 14.71 395.35 14.99L395.35 14.99L395.35 14.99Q395.46 15.27 395.46 15.60L395.46 15.60L395.46 15.60Q395.46 15.68 395.46 15.78L395.46 15.78L395.46 15.78Q395.46 15.88 395.43 15.97L395.43 15.97L395.43 15.97Q395.04 15.96 394.60 15.95L394.60 15.95L394.60 15.95Q394.17 15.95 393.47 15.95L393.47 15.95L393.47 15.95Q393.01 15.95 392.59 15.97L392.59 15.97L392.59 15.97Q392.18 15.99 391.76 16.03L391.76 16.03L391.76 16.03Q391.34 16.07 390.87 16.14L390.87 16.14L390.87 16.14Q390.40 16.21 389.82 16.31L389.82 16.31L389.82 16.31Q389.17 16.06 388.57 15.08L388.57 15.08L388.57 15.08Q388.81 14.57 389.24 13.54L389.24 13.54L389.24 13.54Q389.66 12.52 390.32 10.79L390.32 10.79L390.32 10.79Q389.69 10.60 389.49 10.09L389.49 10.09L389.49 10.09Q389.56 10.02 389.90 9.92L389.90 9.92L389.90 9.92Q390.24 9.81 390.73 9.70L390.73 9.70L390.73 9.70Q390.94 9.16 391.08 8.75L391.08 8.75L391.08 8.75Q391.23 8.34 391.34 7.99L391.34 7.99L391.34 7.99Q391.45 7.63 391.55 7.29L391.55 7.29L391.55 7.29Q391.64 6.94 391.72 6.54L391.72 6.54L391.72 6.54Q391.23 6.51 390.95 6.27L390.95 6.27L390.95 6.27Q390.67 6.02 390.67 5.63L390.67 5.63L390.67 5.63Q390.67 5.52 390.70 5.36L390.70 5.36L390.70 5.36Q390.74 5.21 390.78 5.10L390.78 5.10L390.78 5.10Q391.06 5.14 391.32 5.15L391.32 5.15L391.32 5.15Q391.58 5.17 392 5.17L392 5.17L392 5.17Q392.88 5.17 393.65 5.12L393.65 5.12L393.65 5.12Q394.42 5.07 395.05 5.01L395.05 5.01L395.05 5.01Q395.67 4.96 396.12 4.91L396.12 4.91L396.12 4.91Q396.56 4.86 396.80 4.86L396.80 4.86L396.80 4.86Q397.12 4.86 397.38 5.19L397.38 5.19L397.38 5.19Q397.63 5.53 397.75 6.15L397.75 6.15L397.75 6.15Q397.32 6.10 397.05 6.09L397.05 6.09L397.05 6.09Q396.77 6.08 396.56 6.08L396.56 6.08L396.56 6.08Q395.79 6.08 395.16 6.15L395.16 6.15L395.16 6.15Q394.52 6.23 393.93 6.31L393.93 6.31L393.93 6.31Q393.85 6.44 393.74 6.64L393.74 6.64L393.74 6.64Q393.64 6.83 393.47 7.18L393.47 7.18L393.47 7.18Q393.30 7.53 393.06 8.06L393.06 8.06L393.06 8.06Q392.81 8.60 392.46 9.39L392.46 9.39L392.46 9.39Q392.99 9.31 393.46 9.26L393.46 9.26L393.46 9.26Q393.93 9.21 394.25 9.21ZM406.77 6.69L406.77 6.69L406.77 6.69Q406.21 6.69 405.91 6.38L405.91 6.38L405.91 6.38Q405.61 6.06 405.61 5.61L405.61 5.61L405.61 5.61Q405.61 5.50 405.64 5.35L405.64 5.35L405.64 5.35Q405.68 5.19 405.73 5.08L405.73 5.08L405.73 5.08Q405.92 5.17 406.27 5.20L406.27 5.20L406.27 5.20Q406.63 5.24 407.11 5.24L407.11 5.24L407.11 5.24Q407.82 5.24 408.72 5.17L408.72 5.17L408.72 5.17Q409.63 5.11 410.45 5.04L410.45 5.04L410.45 5.04Q411.28 4.97 411.91 4.91L411.91 4.91L411.91 4.91Q412.54 4.84 412.72 4.84L412.72 4.84L412.72 4.84Q413.24 4.84 413.47 5.23L413.47 5.23L413.47 5.23Q413.70 5.61 413.81 6.26L413.81 6.26L413.81 6.26Q413.45 6.23 413.09 6.21L413.09 6.21L413.09 6.21Q412.73 6.19 412.48 6.19L412.48 6.19L412.48 6.19Q412.03 6.19 411.58 6.22L411.58 6.22L411.58 6.22Q411.12 6.24 410.66 6.30L410.66 6.30L410.66 6.30Q410.47 6.71 410.23 7.26L410.23 7.26L410.23 7.26Q409.99 7.81 409.76 8.41L409.76 8.41L409.76 8.41Q409.53 9.02 409.32 9.61L409.32 9.61L409.32 9.61Q409.11 10.21 408.95 10.68L408.95 10.68L408.95 10.68Q408.65 11.61 408.42 12.39L408.42 12.39L408.42 12.39Q408.18 13.17 408.01 13.85L408.01 13.85L408.01 13.85Q407.83 14.53 407.71 15.15L407.71 15.15L407.71 15.15Q407.58 15.76 407.48 16.35L407.48 16.35L407.48 16.35Q406.55 16.21 405.92 15.18L405.92 15.18L405.92 15.18Q406.03 14.74 406.19 14.23L406.19 14.23L406.19 14.23Q406.35 13.72 406.57 13.07L406.57 13.07L406.57 13.07Q406.78 12.42 407.08 11.59L407.08 11.59L407.08 11.59Q407.37 10.77 407.75 9.72L407.75 9.72L407.75 9.72Q407.89 9.32 408.04 8.90L408.04 8.90L408.04 8.90Q408.20 8.47 408.35 8.05L408.35 8.05L408.35 8.05Q408.49 7.63 408.61 7.24L408.61 7.24L408.61 7.24Q408.73 6.85 408.81 6.52L408.81 6.52L408.81 6.52Q408.23 6.59 407.70 6.64L407.70 6.64L407.70 6.64Q407.18 6.69 406.77 6.69ZM435.43 9.34L435.43 9.34L435.43 9.34Q435.88 9.34 436.14 9.59L436.14 9.59L436.14 9.59Q436.39 9.84 436.39 10.29L436.39 10.29L436.39 10.29Q436.39 10.40 436.38 10.52L436.38 10.52L436.38 10.52Q436.37 10.64 436.32 10.72L436.32 10.72L436.32 10.72Q436.14 10.70 435.92 10.68L435.92 10.68L435.92 10.68Q435.69 10.65 435.39 10.65L435.39 10.65L435.39 10.65Q434.76 10.65 434.13 10.77L434.13 10.77L434.13 10.77Q433.50 10.88 432.92 10.95L432.92 10.95L432.92 10.95Q432.29 12.43 431.89 13.73L431.89 13.73L431.89 13.73Q431.48 15.04 431.26 16.31L431.26 16.31L431.26 16.31Q430.78 16.20 430.42 15.90L430.42 15.90L430.42 15.90Q430.05 15.61 429.73 15.08L429.73 15.08L429.73 15.08Q429.83 14.85 429.97 14.54L429.97 14.54L429.97 14.54Q430.11 14.22 430.30 13.74L430.30 13.74L430.30 13.74Q430.50 13.26 430.77 12.56L430.77 12.56L430.77 12.56Q431.05 11.87 431.42 10.91L431.42 10.91L431.42 10.91Q430.84 10.71 430.65 10.22L430.65 10.22L430.65 10.22Q430.72 10.15 431.05 10.06L431.05 10.06L431.05 10.06Q431.37 9.97 431.83 9.86L431.83 9.86L431.83 9.86Q432.04 9.31 432.19 8.88L432.19 8.88L432.19 8.88Q432.35 8.46 432.47 8.07L432.47 8.07L432.47 8.07Q432.60 7.69 432.71 7.32L432.71 7.32L432.71 7.32Q432.81 6.94 432.89 6.52L432.89 6.52L432.82 6.52L432.82 6.52Q432.29 6.52 431.96 6.27L431.96 6.27L431.96 6.27Q431.63 6.02 431.63 5.61L431.63 5.61L431.63 5.61Q431.63 5.50 431.67 5.35L431.67 5.35L431.67 5.35Q431.70 5.19 431.76 5.08L431.76 5.08L431.76 5.08Q432.03 5.12 432.29 5.14L432.29 5.14L432.29 5.14Q432.54 5.15 432.96 5.15L432.96 5.15L432.96 5.15Q433.85 5.15 434.62 5.10L434.62 5.10L434.62 5.10Q435.39 5.05 436.01 5.00L436.01 5.00L436.01 5.00Q436.63 4.94 437.08 4.89L437.08 4.89L437.08 4.89Q437.53 4.84 437.77 4.84L437.77 4.84L437.77 4.84Q438.09 4.84 438.34 5.18L438.34 5.18L438.34 5.18Q438.59 5.52 438.73 6.13L438.73 6.13L438.73 6.13Q438.28 6.09 438.01 6.08L438.01 6.08L438.01 6.08Q437.74 6.06 437.53 6.06L437.53 6.06L437.53 6.06Q436.81 6.06 436.22 6.13L436.22 6.13L436.22 6.13Q435.62 6.19 435.09 6.27L435.09 6.27L435.09 6.27Q435.01 6.40 434.90 6.59L434.90 6.59L434.90 6.59Q434.80 6.79 434.63 7.15L434.63 7.15L434.63 7.15Q434.46 7.50 434.20 8.08L434.20 8.08L434.20 8.08Q433.94 8.65 433.55 9.53L433.55 9.53L433.55 9.53Q434.10 9.45 434.60 9.39L434.60 9.39L434.60 9.39Q435.09 9.34 435.43 9.34ZM449.48 14.38L449.48 14.38L449.48 14.38Q449.83 14.98 449.83 15.54L449.83 15.54L449.83 15.54Q449.83 15.67 449.81 15.77L449.81 15.77L449.81 15.77Q449.79 15.88 449.76 15.99L449.76 15.99L449.76 15.99Q449.53 15.96 449.27 15.95L449.27 15.95L449.27 15.95Q449.01 15.93 448.73 15.93L448.73 15.93L448.73 15.93Q448.39 15.93 448.05 15.95L448.05 15.95L448.05 15.95Q447.71 15.97 447.29 16.02L447.29 16.02L447.29 16.02Q446.87 16.06 446.35 16.13L446.35 16.13L446.35 16.13Q445.83 16.20 445.14 16.31L445.14 16.31L445.14 16.31Q444.82 16.20 444.50 15.87L444.50 15.87L444.50 15.87Q444.18 15.54 443.90 15.08L443.90 15.08L443.90 15.08Q444.04 14.77 444.25 14.31L444.25 14.31L444.25 14.31Q444.46 13.86 444.74 13.21L444.74 13.21L444.74 13.21Q445.02 12.56 445.36 11.68L445.36 11.68L445.36 11.68Q445.70 10.81 446.10 9.66L446.10 9.66L446.10 9.66Q446.35 8.90 446.53 8.33L446.53 8.33L446.53 8.33Q446.71 7.76 446.86 7.22L446.86 7.22L446.86 7.22Q447.01 6.68 447.15 6.09L447.15 6.09L447.15 6.09Q447.29 5.50 447.45 4.73L447.45 4.73L447.45 4.73Q448.01 4.84 448.43 5.14L448.43 5.14L448.43 5.14Q448.84 5.45 449.22 6.01L449.22 6.01L449.22 6.01Q449.11 6.19 448.92 6.59L448.92 6.59L448.92 6.59Q448.74 7 448.50 7.58L448.50 7.58L448.50 7.58Q448.25 8.16 447.96 8.90L447.96 8.90L447.96 8.90Q447.66 9.63 447.34 10.47L447.34 10.47L447.34 10.47Q447.03 11.30 446.74 12.03L446.74 12.03L446.74 12.03Q446.45 12.75 446.22 13.34L446.22 13.34L446.22 13.34Q445.98 13.93 445.84 14.35L445.84 14.35L445.84 14.35Q445.70 14.77 445.70 14.98L445.70 14.98L445.70 14.98Q445.93 14.97 446.11 14.95L446.11 14.95L446.11 14.95Q446.29 14.94 446.49 14.90L446.49 14.90L446.49 14.90Q446.68 14.87 446.92 14.82L446.92 14.82L446.92 14.82Q447.15 14.77 447.47 14.69L447.47 14.69L447.47 14.69Q447.75 14.62 447.99 14.57L447.99 14.57L447.99 14.57Q448.22 14.52 448.46 14.48L448.46 14.48L448.46 14.48Q448.69 14.45 448.93 14.43L448.93 14.43L448.93 14.43Q449.18 14.41 449.48 14.38ZM464.28 4.98L464.28 4.98L464.28 4.98Q464.55 5.10 464.83 5.27L464.83 5.27L464.83 5.27Q465.11 5.45 465.35 5.63L465.35 5.63L465.35 5.63Q465.58 5.81 465.75 5.98L465.75 5.98L465.75 5.98Q465.91 6.16 465.92 6.27L465.92 6.27L465.92 6.27Q465.68 6.22 465.44 6.20L465.44 6.20L465.44 6.20Q465.21 6.17 465.01 6.17L465.01 6.17L465.01 6.17Q464.38 6.17 463.76 6.48L463.76 6.48L463.76 6.48Q463.13 6.79 462.57 7.32L462.57 7.32L462.57 7.32Q462.01 7.85 461.54 8.57L461.54 8.57L461.54 8.57Q461.06 9.28 460.72 10.09L460.72 10.09L460.72 10.09Q460.38 10.91 460.18 11.77L460.18 11.77L460.18 11.77Q459.98 12.64 459.98 13.48L459.98 13.48L459.98 13.48Q459.98 14.57 460.35 15.11L460.35 15.11L460.35 15.11Q460.71 15.64 461.41 15.64L461.41 15.64L461.41 15.64Q461.75 15.64 462.14 15.51L462.14 15.51L462.14 15.51Q462.53 15.37 462.94 15.13L462.94 15.13L462.94 15.13Q463.34 14.90 463.74 14.56L463.74 14.56L463.74 14.56Q464.13 14.22 464.46 13.82L464.46 13.82L464.46 13.82Q464.95 13.23 465.35 12.48L465.35 12.48L465.35 12.48Q465.74 11.73 466.01 10.89L466.01 10.89L466.01 10.89Q466.28 10.05 466.43 9.16L466.43 9.16L466.43 9.16Q466.58 8.27 466.58 7.42L466.58 7.42L466.58 7.42Q466.58 7.08 466.56 6.85L466.56 6.85L466.56 6.85Q466.55 6.62 466.53 6.46L466.53 6.46L466.53 6.46Q466.51 6.30 466.49 6.20L466.49 6.20L466.49 6.20Q466.48 6.10 466.47 6.03L466.47 6.03L466.47 6.03Q466.63 6.12 466.84 6.24L466.84 6.24L466.84 6.24Q467.04 6.36 467.22 6.59L467.22 6.59L467.22 6.59Q467.39 6.82 467.51 7.20L467.51 7.20L467.51 7.20Q467.63 7.57 467.63 8.18L467.63 8.18L467.63 8.18Q467.63 9.16 467.40 10.10L467.40 10.10L467.40 10.10Q467.17 11.05 466.75 11.90L466.75 11.90L466.75 11.90Q466.34 12.75 465.78 13.50L465.78 13.50L465.78 13.50Q465.22 14.24 464.58 14.80L464.58 14.80L464.58 14.80Q463.74 15.54 462.78 15.95L462.78 15.95L462.78 15.95Q461.83 16.35 460.95 16.35L460.95 16.35L460.95 16.35Q459.66 16.35 458.98 15.53L458.98 15.53L458.98 15.53Q458.30 14.71 458.30 13.12L458.30 13.12L458.30 13.12Q458.30 12.26 458.49 11.31L458.49 11.31L458.49 11.31Q458.68 10.36 459.03 9.44L459.03 9.44L459.03 9.44Q459.37 8.51 459.84 7.68L459.84 7.68L459.84 7.68Q460.32 6.85 460.89 6.21L460.89 6.21L460.89 6.21Q461.45 5.57 462.11 5.19L462.11 5.19L462.11 5.19Q462.76 4.82 463.44 4.82L463.44 4.82L463.44 4.82Q463.67 4.82 463.86 4.85L463.86 4.85L463.86 4.85Q464.06 4.89 464.28 4.98ZM476.56 15.61L476.56 15.61L476.56 15.61Q476.49 15.04 476.46 14.36L476.46 14.36L476.46 14.36Q476.42 13.68 476.42 13.09L476.42 13.09L476.42 13.09Q476.42 12.15 476.48 11.29L476.48 11.29L476.48 11.29Q476.55 10.43 476.64 9.48L476.64 9.48L476.64 9.48Q476.73 8.54 476.84 7.43L476.84 7.43L476.84 7.43Q476.95 6.31 477.04 4.86L477.04 4.86L477.04 4.86Q477.22 4.86 477.56 4.96L477.56 4.96L477.56 4.96Q477.90 5.07 478.25 5.21L478.25 5.21L478.25 5.21Q478.60 5.35 478.87 5.49L478.87 5.49L478.87 5.49Q479.14 5.64 479.18 5.74L479.18 5.74L479.18 5.74Q478.94 6.29 478.75 7.18L478.75 7.18L478.75 7.18Q478.56 8.06 478.44 9.11L478.44 9.11L478.44 9.11Q478.31 10.16 478.24 11.27L478.24 11.27L478.24 11.27Q478.17 12.38 478.17 13.34L478.17 13.34L478.17 13.34Q478.17 13.79 478.18 14.22L478.18 14.22L478.18 14.22Q478.20 14.66 478.23 15.02L478.23 15.02L478.23 15.02Q478.52 14.59 478.91 13.78L478.91 13.78L478.91 13.78Q479.29 12.98 479.70 11.98L479.70 11.98L479.70 11.98Q480.12 10.99 480.53 9.91L480.53 9.91L480.53 9.91Q480.94 8.82 481.29 7.83L481.29 7.83L481.29 7.83Q481.64 6.85 481.89 6.05L481.89 6.05L481.89 6.05Q482.13 5.26 482.23 4.86L482.23 4.86L482.23 4.86Q482.41 4.86 482.77 4.96L482.77 4.96L482.77 4.96Q483.13 5.07 483.47 5.21L483.47 5.21L483.47 5.21Q483.81 5.35 484.08 5.49L484.08 5.49L484.08 5.49Q484.34 5.64 484.37 5.74L484.37 5.74L484.37 5.74Q484.13 6.29 483.95 7.18L483.95 7.18L483.95 7.18Q483.76 8.06 483.63 9.11L483.63 9.11L483.63 9.11Q483.50 10.16 483.43 11.27L483.43 11.27L483.43 11.27Q483.36 12.38 483.36 13.34L483.36 13.34L483.36 13.34Q483.36 13.75 483.37 14.15L483.37 14.15L483.37 14.15Q483.38 14.55 483.41 14.87L483.41 14.87L483.41 14.87Q483.85 13.71 484.34 12.56L484.34 12.56L484.34 12.56Q484.82 11.42 485.30 10.38L485.30 10.38L485.30 10.38Q485.77 9.34 486.22 8.43L486.22 8.43L486.22 8.43Q486.67 7.53 487.05 6.82L487.05 6.82L487.05 6.82Q487.42 6.12 487.70 5.66L487.70 5.66L487.70 5.66Q487.98 5.19 488.14 5.04L488.14 5.04L488.14 5.04Q488.46 5.08 488.80 5.27L488.80 5.27L488.80 5.27Q489.15 5.46 489.41 5.75L489.41 5.75L489.41 5.75Q489.01 6.08 488.49 6.81L488.49 6.81L488.49 6.81Q487.97 7.55 487.42 8.51L487.42 8.51L487.42 8.51Q486.88 9.48 486.33 10.57L486.33 10.57L486.33 10.57Q485.77 11.66 485.30 12.70L485.30 12.70L485.30 12.70Q484.82 13.73 484.45 14.63L484.45 14.63L484.45 14.63Q484.08 15.53 483.88 16.07L483.88 16.07L483.88 16.07Q483.52 16.24 483.17 16.24L483.17 16.24L483.17 16.24Q482.72 16.18 482.32 16.02L482.32 16.02L482.32 16.02Q481.92 15.85 481.75 15.61L481.75 15.61L481.75 15.61Q481.71 15.39 481.68 15.09L481.68 15.09L481.68 15.09Q481.66 14.78 481.64 14.49L481.64 14.49L481.64 14.49Q481.63 14.20 481.62 13.92L481.62 13.92L481.62 13.92Q481.61 13.65 481.61 13.45L481.61 13.45L481.61 13.45Q481.61 12.21 481.71 10.91L481.71 10.91L481.71 10.91Q481.81 9.62 481.95 8.13L481.95 8.13L481.95 8.13Q481.63 9.09 481.24 10.18L481.24 10.18L481.24 10.18Q480.84 11.27 480.42 12.34L480.42 12.34L480.42 12.34Q479.99 13.41 479.55 14.38L479.55 14.38L479.55 14.38Q479.11 15.36 478.69 16.07L478.69 16.07L478.69 16.07Q478.32 16.24 477.97 16.24L477.97 16.24L477.97 16.24Q477.53 16.18 477.13 16.02L477.13 16.02L477.13 16.02Q476.73 15.85 476.56 15.61ZM500.89 9.21L500.89 9.21L500.89 9.21Q501.35 9.21 501.61 9.46L501.61 9.46L501.61 9.46Q501.87 9.72 501.87 10.16L501.87 10.16L501.87 10.16Q501.87 10.28 501.85 10.39L501.85 10.39L501.85 10.39Q501.83 10.51 501.80 10.60L501.80 10.60L501.80 10.60Q501.62 10.57 501.40 10.55L501.40 10.55L501.40 10.55Q501.17 10.53 500.86 10.53L500.86 10.53L500.86 10.53Q500.26 10.53 499.65 10.63L499.65 10.63L499.65 10.63Q499.03 10.74 498.47 10.81L498.47 10.81L498.47 10.81Q498.15 11.55 497.88 12.24L497.88 12.24L497.88 12.24Q497.62 12.94 497.43 13.51L497.43 13.51L497.43 13.51Q497.24 14.08 497.13 14.50L497.13 14.50L497.13 14.50Q497.03 14.92 497.01 15.13L497.01 15.13L497.01 15.13Q498.15 14.90 499.30 14.73L499.30 14.73L499.30 14.73Q500.46 14.56 501.73 14.48L501.73 14.48L501.73 14.48Q501.89 14.71 501.99 14.99L501.99 14.99L501.99 14.99Q502.10 15.27 502.10 15.60L502.10 15.60L502.10 15.60Q502.10 15.68 502.10 15.78L502.10 15.78L502.10 15.78Q502.10 15.88 502.07 15.97L502.07 15.97L502.07 15.97Q501.68 15.96 501.24 15.95L501.24 15.95L501.24 15.95Q500.81 15.95 500.11 15.95L500.11 15.95L500.11 15.95Q499.65 15.95 499.23 15.97L499.23 15.97L499.23 15.97Q498.82 15.99 498.40 16.03L498.40 16.03L498.40 16.03Q497.98 16.07 497.51 16.14L497.51 16.14L497.51 16.14Q497.04 16.21 496.45 16.31L496.45 16.31L496.45 16.31Q495.81 16.06 495.21 15.08L495.21 15.08L495.21 15.08Q495.45 14.57 495.87 13.54L495.87 13.54L495.87 13.54Q496.30 12.52 496.96 10.79L496.96 10.79L496.96 10.79Q496.33 10.60 496.13 10.09L496.13 10.09L496.13 10.09Q496.20 10.02 496.54 9.92L496.54 9.92L496.54 9.92Q496.87 9.81 497.36 9.70L497.36 9.70L497.36 9.70Q497.57 9.16 497.72 8.75L497.72 8.75L497.72 8.75Q497.87 8.34 497.98 7.99L497.98 7.99L497.98 7.99Q498.09 7.63 498.18 7.29L498.18 7.29L498.18 7.29Q498.27 6.94 498.36 6.54L498.36 6.54L498.36 6.54Q497.87 6.51 497.59 6.27L497.59 6.27L497.59 6.27Q497.31 6.02 497.31 5.63L497.31 5.63L497.31 5.63Q497.31 5.52 497.34 5.36L497.34 5.36L497.34 5.36Q497.38 5.21 497.42 5.10L497.42 5.10L497.42 5.10Q497.70 5.14 497.96 5.15L497.96 5.15L497.96 5.15Q498.22 5.17 498.64 5.17L498.64 5.17L498.64 5.17Q499.52 5.17 500.29 5.12L500.29 5.12L500.29 5.12Q501.06 5.07 501.68 5.01L501.68 5.01L501.68 5.01Q502.31 4.96 502.75 4.91L502.75 4.91L502.75 4.91Q503.20 4.86 503.44 4.86L503.44 4.86L503.44 4.86Q503.76 4.86 504.01 5.19L504.01 5.19L504.01 5.19Q504.27 5.53 504.39 6.15L504.39 6.15L504.39 6.15Q503.96 6.10 503.69 6.09L503.69 6.09L503.69 6.09Q503.41 6.08 503.20 6.08L503.20 6.08L503.20 6.08Q502.43 6.08 501.80 6.15L501.80 6.15L501.80 6.15Q501.16 6.23 500.57 6.31L500.57 6.31L500.57 6.31Q500.49 6.44 500.38 6.64L500.38 6.64L500.38 6.64Q500.28 6.83 500.11 7.18L500.11 7.18L500.11 7.18Q499.94 7.53 499.70 8.06L499.70 8.06L499.70 8.06Q499.45 8.60 499.10 9.39L499.10 9.39L499.10 9.39Q499.63 9.31 500.10 9.26L500.10 9.26L500.10 9.26Q500.57 9.21 500.89 9.21ZM520.16 7.46L520.16 7.46L520.16 7.46Q520.16 8.13 519.86 8.73L519.86 8.73L519.86 8.73Q519.55 9.32 519.02 9.79L519.02 9.79L519.02 9.79Q518.49 10.26 517.78 10.58L517.78 10.58L517.78 10.58Q517.06 10.91 516.22 11.02L516.22 11.02L516.22 11.02Q516.43 11.65 516.73 12.31L516.73 12.31L516.73 12.31Q517.03 12.98 517.38 13.59L517.38 13.59L517.38 13.59Q517.73 14.21 518.11 14.73L518.11 14.73L518.11 14.73Q518.49 15.25 518.85 15.58L518.85 15.58L518.85 15.58Q518.78 15.72 518.65 15.86L518.65 15.86L518.65 15.86Q518.52 16.00 518.34 16.12L518.34 16.12L518.34 16.12Q518.17 16.24 517.98 16.32L517.98 16.32L517.98 16.32Q517.79 16.39 517.62 16.39L517.62 16.39L517.62 16.39Q517.31 16.39 517.03 16.10L517.03 16.10L517.03 16.10Q516.75 15.81 516.47 15.17L516.47 15.17L516.47 15.17Q516.18 14.53 515.87 13.52L515.87 13.52L515.87 13.52Q515.55 12.50 515.17 11.07L515.17 11.07L515.17 11.07Q515.02 11.07 514.86 11.07L514.86 11.07L514.86 11.07Q514.71 11.07 514.63 11.05L514.63 11.05L514.63 11.05Q514.53 10.99 514.42 10.85L514.42 10.85L514.42 10.85Q514.04 11.66 513.74 12.38L513.74 12.38L513.74 12.38Q513.45 13.09 513.22 13.76L513.22 13.76L513.22 13.76Q512.99 14.42 512.81 15.04L512.81 15.04L512.81 15.04Q512.64 15.67 512.51 16.31L512.51 16.31L512.51 16.31Q512.04 16.20 511.69 15.90L511.69 15.90L511.69 15.90Q511.34 15.61 511.03 15.08L511.03 15.08L511.03 15.08Q511.08 14.95 511.15 14.83L511.15 14.83L511.15 14.83Q511.21 14.71 511.31 14.50L511.31 14.50L511.31 14.50Q511.41 14.28 511.55 13.94L511.55 13.94L511.55 13.94Q511.70 13.61 511.95 13.05L511.95 13.05L511.95 13.05Q512.19 12.49 512.53 11.68L512.53 11.68L512.53 11.68Q512.88 10.86 513.37 9.70L513.37 9.70L513.37 9.70Q513.59 9.18 513.75 8.79L513.75 8.79L513.75 8.79Q513.91 8.40 514.04 8.04L514.04 8.04L514.04 8.04Q514.16 7.69 514.27 7.33L514.27 7.33L514.27 7.33Q514.37 6.97 514.49 6.51L514.49 6.51L514.49 6.51Q513.84 6.73 513.29 7.01L513.29 7.01L513.29 7.01Q512.74 7.28 512.37 7.59L512.37 7.59L512.37 7.59Q512.25 7.50 512.11 7.34L512.11 7.34L512.11 7.34Q511.98 7.17 511.87 6.96L511.87 6.96L511.87 6.96Q511.76 6.76 511.67 6.55L511.67 6.55L511.67 6.55Q511.59 6.34 511.57 6.17L511.57 6.17L511.57 6.17Q511.99 5.89 512.60 5.66L512.60 5.66L512.60 5.66Q513.21 5.42 513.90 5.24L513.90 5.24L513.90 5.24Q514.58 5.07 515.30 4.97L515.30 4.97L515.30 4.97Q516.01 4.87 516.63 4.87L516.63 4.87L516.63 4.87Q518.31 4.87 519.23 5.56L519.23 5.56L519.23 5.56Q520.16 6.26 520.16 7.46ZM516.57 6.02L516.74 6.29L516.74 6.29Q516.64 6.41 516.43 6.79L516.43 6.79L516.43 6.79Q516.22 7.17 515.95 7.69L515.95 7.69L515.95 7.69Q515.68 8.22 515.38 8.83L515.38 8.83L515.38 8.83Q515.07 9.45 514.79 10.05L514.79 10.05L514.79 10.05Q515.84 10.05 516.73 9.86L516.73 9.86L516.73 9.86Q517.61 9.66 518.25 9.30L518.25 9.30L518.25 9.30Q518.90 8.95 519.25 8.46L519.25 8.46L519.25 8.46Q519.61 7.98 519.61 7.39L519.61 7.39L519.61 7.39Q519.61 6.69 519.11 6.32L519.11 6.32L519.11 6.32Q518.60 5.95 517.55 5.95L517.55 5.95L517.55 5.95Q517.31 5.95 517.08 5.97L517.08 5.97L517.08 5.97Q516.84 5.99 516.57 6.02L516.57 6.02ZM536.30 5.74L536.30 5.74L536.30 5.74Q536.34 5.98 536.36 6.07L536.36 6.07L536.36 6.07Q536.38 6.16 536.38 6.31L536.38 6.31L536.38 6.31Q536.38 6.78 536.18 7.18L536.18 7.18L536.18 7.18Q535.98 7.57 535.63 7.74L535.63 7.74L535.63 7.74Q535.35 7.36 534.94 7.09L534.94 7.09L534.94 7.09Q534.53 6.82 534.05 6.64L534.05 6.64L534.05 6.64Q533.57 6.47 533.05 6.38L533.05 6.38L533.05 6.38Q532.53 6.30 532.04 6.30L532.04 6.30L532.04 6.30Q531.55 6.30 531.13 6.38L531.13 6.38L531.13 6.38Q530.70 6.45 530.37 6.59L530.37 6.59L530.37 6.59Q530.04 6.72 529.85 6.92L529.85 6.92L529.85 6.92Q529.66 7.11 529.66 7.36L529.66 7.36L529.66 7.36Q529.70 7.67 530.04 7.99L530.04 7.99L530.04 7.99Q530.38 8.30 530.87 8.60L530.87 8.60L530.87 8.60Q531.36 8.90 531.95 9.20L531.95 9.20L531.95 9.20Q532.55 9.49 533.12 9.76L533.12 9.76L533.12 9.76Q533.83 10.09 534.35 10.38L534.35 10.38L534.35 10.38Q534.87 10.67 535.21 11.01L535.21 11.01L535.21 11.01Q535.54 11.35 535.71 11.79L535.71 11.79L535.71 11.79Q535.88 12.22 535.88 12.84L535.88 12.84L535.88 12.84Q535.88 13.55 535.64 14.18L535.64 14.18L535.64 14.18Q535.40 14.80 534.95 15.26L534.95 15.26L534.95 15.26Q534.49 15.72 533.85 15.98L533.85 15.98L533.85 15.98Q533.20 16.24 532.41 16.24L532.41 16.24L532.41 16.24Q531.62 16.24 530.71 16.00L530.71 16.00L530.71 16.00Q529.80 15.76 529.01 15.35L529.01 15.35L529.01 15.35Q528.22 14.94 527.70 14.40L527.70 14.40L527.70 14.40Q527.17 13.86 527.17 13.26L527.17 13.26L527.17 13.26Q527.17 12.98 527.33 12.54L527.33 12.54L527.33 12.54Q527.49 12.11 527.91 11.63L527.91 11.63L527.91 11.63Q527.95 12.05 528.37 12.63L528.37 12.63L528.37 12.63Q528.78 13.20 529.61 13.69L529.61 13.69L529.61 13.69Q530.38 14.14 531.20 14.34L531.20 14.34L531.20 14.34Q532.01 14.55 532.73 14.55L532.73 14.55L532.73 14.55Q533.51 14.55 534.00 14.35L534.00 14.35L534.00 14.35Q534.49 14.15 534.77 13.88L534.77 13.88L534.77 13.88Q535.05 13.61 535.16 13.33L535.16 13.33L535.16 13.33Q535.28 13.05 535.29 12.88L535.29 12.88L535.29 12.88Q535.28 12.60 535.03 12.34L535.03 12.34L535.03 12.34Q534.79 12.08 534.37 11.84L534.37 11.84L534.37 11.84Q533.96 11.59 533.41 11.34L533.41 11.34L533.41 11.34Q532.87 11.09 532.28 10.84L532.28 10.84L532.28 10.84Q531.40 10.44 530.76 10.10L530.76 10.10L530.76 10.10Q530.12 9.76 529.71 9.40L529.71 9.40L529.71 9.40Q529.30 9.04 529.11 8.65L529.11 8.65L529.11 8.65Q528.92 8.26 528.92 7.76L528.92 7.76L528.92 7.76Q528.92 6.97 529.40 6.27L529.40 6.27L529.40 6.27Q529.87 5.57 530.77 5.21L530.77 5.21L530.77 5.21Q531.22 5.01 531.73 4.93L531.73 4.93L531.73 4.93Q532.24 4.84 532.73 4.84L532.73 4.84L532.73 4.84Q533.65 4.84 534.53 5.10L534.53 5.10L534.53 5.10Q535.42 5.35 536.30 5.74ZM544.59 12.54L544.59 12.54L544.59 12.54Q544.59 12.17 544.79 11.45L544.79 11.45L544.79 11.45Q544.99 10.72 545.31 9.85L545.31 9.85L545.31 9.85Q545.64 8.97 546.04 8.04L546.04 8.04L546.04 8.04Q546.45 7.11 546.86 6.30L546.86 6.30L546.86 6.30Q547.27 5.49 547.65 4.89L547.65 4.89L547.65 4.89Q548.03 4.30 548.31 4.10L548.31 4.10L548.31 4.10Q548.53 4.14 548.79 4.30L548.79 4.30L548.79 4.30Q549.05 4.47 549.28 4.67L549.28 4.67L549.28 4.67Q549.50 4.87 549.67 5.10L549.67 5.10L549.67 5.10Q549.84 5.32 549.86 5.49L549.86 5.49L549.86 5.49Q549.15 6.08 548.45 6.95L548.45 6.95L548.45 6.95Q547.75 7.83 547.16 8.89L547.16 8.89L547.16 8.89Q546.56 9.95 546.11 11.16L546.11 11.16L546.11 11.16Q545.66 12.38 545.44 13.64L545.44 13.64L545.44 13.64Q545.27 13.59 545.11 13.53L545.11 13.53L545.11 13.53Q544.95 13.47 544.84 13.36L544.84 13.36L544.84 13.36Q544.73 13.24 544.66 13.05L544.66 13.05L544.66 13.05Q544.59 12.85 544.59 12.54ZM544.28 16.25L544.28 16.25L544.28 16.25Q544.11 16.25 543.96 16.18L543.96 16.18L543.96 16.18Q543.80 16.10 543.68 16.00L543.68 16.00L543.68 16.00Q543.56 15.89 543.49 15.77L543.49 15.77L543.49 15.77Q543.42 15.65 543.42 15.58L543.42 15.58L543.42 15.58Q543.42 15.41 543.47 15.15L543.47 15.15L543.47 15.15Q543.51 14.88 543.59 14.64L543.59 14.64L543.59 14.64Q543.68 14.39 543.80 14.22L543.80 14.22L543.80 14.22Q543.93 14.04 544.08 14.04L544.08 14.04L544.08 14.04Q544.47 14.04 544.87 14.31L544.87 14.31L544.87 14.31Q545.27 14.59 545.47 14.92L545.47 14.92L545.47 14.92Q545.30 15.11 545.17 15.34L545.17 15.34L545.17 15.34Q545.05 15.57 544.92 15.77L544.92 15.77L544.92 15.77Q544.80 15.97 544.64 16.11L544.64 16.11L544.64 16.11Q544.49 16.25 544.28 16.25Z"></path></g></svg>