<svg data-v-423bf9ae="" xmlns="http://www.w3.org/2000/svg" viewBox="0 0 228.5999991677024 60" class="font"><!----><!----><!----><g data-v-423bf9ae="" id="04c119e6-77db-4cb0-8d83-b581623fc81f" fill="black" transform="matrix(5.454545454545454,0,0,5.454545454545454,-2.454548551277668,2.127272185954183)"><path d="M1.90 2.86C1.90 1.39 2.91 0.67 3.85 0.57L1.62 10.43C1.78 10.54 2.04 10.61 2.37 10.61C2.88 10.61 3.43 10.37 3.57 9.72L4.45 5.57C4.86 5.66 5.25 5.81 5.67 5.81C6.40 5.81 6.78 5.10 6.44 4.66C5.87 4.94 5.31 4.76 4.63 4.69L5.42 1.02C6.13 1.34 6.90 1.72 7.46 1.72C8.47 1.72 9.14 0.87 8.83-0.39C7.22 0.32 5.88-0.28 4.33-0.28C3.00-0.28 0.45 0.21 0.45 2.51C0.45 3.18 0.87 3.81 1.60 3.81C1.78 3.81 1.97 3.77 2.18 3.67C1.99 3.44 1.90 3.09 1.90 2.86ZM11.68 8.33C11.77 8.06 11.61 7.76 11.34 7.80C11.07 8.57 9.95 9.25 9.18 9.25C8.69 9.25 8.33 8.97 8.43 8.25C8.44 8.08 8.47 7.90 8.50 7.73C10.30 4.97 11.21 2.73 11.21 1.64C11.21 0.91 10.75 0.50 10.09 0.50C8.26 0.50 7.32 3.47 6.68 8.54C6.50 10.01 7.24 10.61 8.22 10.61C9.51 10.61 11.19 9.60 11.68 8.33ZM10.19 1.43C10.35 1.43 10.43 1.50 10.43 1.74C10.43 2.21 9.91 4.20 8.68 6.48C9.16 3.53 9.73 1.43 10.19 1.43ZM14.71 3.37C12.60 3.37 11.13 6.02 11.13 8.13C11.13 9.45 11.75 10.61 13.19 10.61C15.39 10.61 16.88 7.97 16.88 5.88C16.88 4.51 16.24 3.37 14.71 3.37ZM15.02 4.44C15.60 4.44 15.83 5.01 15.83 5.77C15.83 7.24 14.94 9.39 13.83 9.39C13.34 9.39 12.92 8.92 12.92 7.69C12.92 6.31 13.75 4.44 15.02 4.44ZM21.85 4.31C21.39 6.82 20.99 8.32 20.13 9.16C19.85 8.61 19.74 7.87 19.74 7.04C19.74 6.12 19.88 5.11 20.08 4.20C20.19 3.67 19.91 3.43 19.40 3.43C18.65 3.43 17.64 4.10 17.64 4.42C17.64 4.54 17.65 4.68 17.85 4.86C17.93 4.76 18.03 4.70 18.12 4.70C18.21 4.70 18.31 4.77 18.27 4.91C18.09 5.49 17.98 6.38 17.98 7.29C17.98 8.93 18.34 10.61 19.29 10.61C20.03 10.61 20.96 9.59 21.70 7.91C21.78 9.30 22.05 10.61 22.78 10.61C24.29 10.61 26.59 7.18 26.59 3.98C26.59 2.95 26.00 2.44 25.45 2.42C24.99 2.41 24.54 2.77 24.51 3.50C25.10 3.77 25.38 4.59 25.38 5.53C25.38 6.85 24.68 8.32 23.62 9.16C23.32 8.53 23.20 7.81 23.20 7.06C23.20 6.01 23.42 4.84 23.69 3.61C23.53 3.50 23.27 3.43 23.03 3.43C22.53 3.43 21.98 3.67 21.85 4.31ZM31.68 4.72C31.68 4.09 31.36 3.37 30.09 3.37C27.78 3.37 26.57 6.29 26.57 8.11C26.57 9.83 27.64 10.61 28.95 10.61C30.31 10.61 31.93 9.77 32.90 8.36C33.05 8.11 32.91 7.81 32.55 7.88C31.95 8.68 30.66 9.39 29.65 9.39C29.01 9.39 28.49 9.11 28.35 8.36C31.05 6.86 31.68 5.91 31.68 4.72ZM30.18 4.47C30.42 4.47 30.59 4.69 30.59 5.01C30.59 5.92 29.67 6.90 28.31 7.76C28.35 6.78 28.80 4.47 30.18 4.47ZM34.97 4.20C35.08 3.67 34.80 3.43 34.30 3.43C33.71 3.43 33.21 3.72 32.73 4.10C32.45 4.33 32.55 4.76 32.73 4.87C32.86 4.76 32.94 4.70 33.01 4.70C33.14 4.70 33.19 4.83 33.15 5.05L32.00 10.43C32.17 10.54 32.41 10.61 32.66 10.61C33.17 10.61 33.70 10.37 33.84 9.73L34.01 8.88C34.72 5.64 35.38 5.01 35.84 5.01C36.13 5.01 36.27 5.17 36.27 5.36C36.27 5.53 36.22 5.71 36.12 5.80C36.25 5.84 36.40 5.85 36.53 5.85C37.25 5.85 37.65 5.17 37.65 4.54C37.65 3.96 37.30 3.43 36.62 3.43C35.98 3.43 35.38 3.82 34.82 4.96ZM39.05 10.61C41.10 10.61 41.92 9.60 41.92 8.25C41.92 6.47 39.62 6.79 39.62 5.31C39.62 4.55 40.05 4.17 40.43 4.17C40.77 4.17 41.06 4.41 41.06 4.93C41.06 5.21 40.96 5.52 40.82 5.68C41.01 5.81 41.20 5.87 41.38 5.88C41.90 5.91 42.36 5.52 42.36 4.73C42.36 3.82 41.79 3.37 40.60 3.37C38.98 3.37 38.21 4.41 38.21 5.53C38.21 7.63 40.52 7.50 40.52 8.57C40.52 9.25 39.94 9.69 39.41 9.69C38.96 9.69 38.53 9.41 38.53 8.76C38.53 8.43 38.64 8.09 38.82 7.88C38.67 7.74 38.49 7.69 38.26 7.69C37.58 7.69 37.17 8.19 37.07 8.76C36.92 9.70 37.55 10.61 39.05 10.61Z"></path></g><!----><!----></svg>